<svg xmlns="http://www.w3.org/2000/svg" xmlns:xlink="http://www.w3.org/1999/xlink" width="100%" height="100%" viewBox="0 0 500 148.0663">
  <defs>
    <style>
      .cls-1 {
        opacity: 0.35;
      }

      .cls-2, .cls-3 {
        fill: #f6ae2e;
      }

      .cls-2 {
        opacity: 0.12;
      }

      .cls-4 {
        fill: #fff;
      }

      .cls-5 {
        fill: #a8a848;
      }

      .cls-6 {
        fill: #475050;
      }

      .cls-7 {
        fill: #f6b5b5;
      }

      .cls-8 {
        fill: #ee7798;
      }

      .cls-9 {
        fill: #faeee8;
      }

      .cls-10 {
        fill: #c8e7ef;
      }

      .cls-11 {
        fill: #d45a72;
      }

      .cls-12 {
        fill: #353a3a;
      }

      .cls-13 {
        fill: #fab757;
      }

      .cls-14 {
        fill: #2d466d;
      }

      .cls-15 {
        fill: url(#linear-gradient);
      }

      .cls-16 {
        fill: #db833b;
      }

      .cls-17 {
        fill: #f29581;
      }

      .cls-18 {
        fill: url(#linear-gradient-2);
      }

      .cls-19 {
        fill: #313535;
      }

      .cls-20 {
        fill: #f3e6d6;
      }

      .cls-21 {
        fill: #3d5f94;
      }

      .cls-22 {
        fill: #f2904c;
      }

      .cls-23 {
        fill: #e83c6e;
      }

      .cls-24 {
        fill: #251c46;
      }

      .cls-25 {
        fill: #5fc5e7;
      }

      .cls-26 {
        fill: #fccd6d;
      }

      .cls-27 {
        fill: #e63463;
      }

      .cls-28 {
        fill: #b3244a;
      }

      .cls-29 {
        fill: #f0d0be;
      }

      .cls-30 {
        fill: #2b2050;
      }

      .cls-31 {
        fill: #333a85;
      }

      .cls-32 {
        fill: #283270;
      }

      .cls-33 {
        fill: #3754a1;
      }
    </style>
    <linearGradient id="linear-gradient" x1="208.03161" y1="90.90443" x2="235.26623" y2="71.58327" gradientUnits="userSpaceOnUse">
      <stop offset="0" stop-color="#9ed7e7"/>
      <stop offset="0.99441" stop-color="#cae8f3" stop-opacity="0"/>
    </linearGradient>
    <linearGradient id="linear-gradient-2" x1="204.24144" y1="87.73833" x2="214.6338" y2="44.68428" xlink:href="#linear-gradient"/>
  </defs>
  <title>documentation illustration tutorials </title>
  <g id="Layer_5" data-name="Layer 5">
    <g>
      <g id="background" class="cls-1">
        <path class="cls-2" d="M143.84205,134.86185a67.57621,67.57621,0,1,0-112.15136,0Z"/>
        <circle class="cls-2" cx="210.79478" cy="67.45494" r="52.3174"/>
        <path class="cls-3" d="M19.473,134.86185H139.87661s-25.4147,7.24064-66.77071,7.24064S19.473,134.86185,19.473,134.86185Z"/>
        <path class="cls-3" d="M139.802,134.86185H260.2056s-25.4147,7.24064-66.77071,7.24064S139.802,134.86185,139.802,134.86185Z"/>
      </g>
      <g id="grass">
        <g>
          <polygon class="cls-4" points="234.745 134.862 263.531 134.862 262.603 128.185 256.145 128.824 261.563 124.952 258 119.533 252.285 124.328 255.551 117.677 250.8 114.263 247.014 121.653 248.35 113.376 241.595 111.754 240.259 120.424 239.443 111.754 232.836 111.754 234.745 134.862"/>
          <rect class="cls-5" x="234.4964" y="131.59806" width="28.61601" height="0.50693"/>
          <path class="cls-4" d="M242.31922,131.97826l-.01534-.001a.1265.1265,0,0,1-.1104-.14109l2.37625-19.35259a.12948.12948,0,0,1,.14109-.1104.12652.12652,0,0,1,.1104.14109L242.445,131.86687A.12667.12667,0,0,1,242.31922,131.97826Z"/>
          <rect class="cls-5" x="240.02691" y="123.71535" width="17.97828" height="0.50691" transform="translate(20.64503 282.78925) rotate(-61.28236)"/>
          <rect class="cls-5" x="246.97092" y="126.76017" width="14.60022" height="0.50642" transform="translate(-20.31218 200.43146) rotate(-41.5126)"/>
          <path class="cls-4" d="M237.03008,131.97826a.12664.12664,0,0,1-.12624-.11832l-1.33614-20.09715a.12609.12609,0,0,1,.11782-.13465l.00842-.0005a.12663.12663,0,0,1,.12623.11832l1.33615,20.09715a.12609.12609,0,0,1-.11782.13465Z"/>
        </g>
        <g>
          <path class="cls-5" d="M39.80544,112.83454s-19.10759,4.32318-20.3324,22.02731H33.87475S42.32238,120.98218,39.80544,112.83454Z"/>
          <path class="cls-4" d="M39.25116,134.98867a.12694.12694,0,0,1-.12574-.11039l-2.72526-20.97043a.127.127,0,0,1,.1094-.14208.131.131,0,0,1,.14208.10941l2.72527,20.97042a.127.127,0,0,1-.10941.14208Z"/>
          <path class="cls-4" d="M37.4368,134.98867a.12684.12684,0,0,1-.12179-.09208l-5.34508-18.87684a.12626.12626,0,0,1,.08713-.15644.1244.1244,0,0,1,.15644.08713l5.34508,18.87685a.12625.12625,0,0,1-.08713.15643A.122.122,0,0,1,37.4368,134.98867Z"/>
          <path class="cls-4" d="M35.80411,134.98867a.12684.12684,0,0,1-.11485-.07277l-7.62678-16.25109a.1269.1269,0,0,1,.22971-.10792L35.919,134.808a.127.127,0,0,1-.06089.16881A.12948.12948,0,0,1,35.80411,134.98867Z"/>
          <path class="cls-4" d="M34.31945,134.98867a.12681.12681,0,0,1-.1005-.0495l-9.76-12.74859a.12675.12675,0,0,1,.201-.15446l9.76,12.74859a.12673.12673,0,0,1-.1005.204Z"/>
          <path class="cls-4" d="M32.612,134.98867a.12573.12573,0,0,1-.08515-.03317L22.158,125.53466a.12651.12651,0,1,1,.1703-.18713l10.36887,9.42084a.12581.12581,0,0,1,.00842.17872A.12452.12452,0,0,1,32.612,134.98867Z"/>
          <path class="cls-4" d="M30.53329,134.98867a.12739.12739,0,0,1-.06931-.02079l-9.70946-6.37429a.126.126,0,0,1-.03664-.17525.12789.12789,0,0,1,.17525-.03664l9.70947,6.3743a.1267.1267,0,0,1-.06931.23267Z"/>
          <path class="cls-4" d="M26.9704,134.98867a.12184.12184,0,0,1-.052-.01138L19.856,131.79014a.12633.12633,0,0,1-.06337-.16733.12481.12481,0,0,1,.16733-.06337l7.06242,3.18715a.12666.12666,0,0,1-.052.24208Z"/>
        </g>
        <g>
          <path class="cls-4" d="M67.70489,134.86185S65.70127,119.597,78.61748,111.62234a28.04351,28.04351,0,0,1-.74231,6.87154l-2.30116.56592,1.78155,1.50063a54.92532,54.92532,0,0,1-9.0562,14.30142Z"/>
          <path class="cls-4" d="M69.93244,134.86185s3.93425-10.281,15.06892-10.65217c0,0-.89077,3.526-3.11771,5.32608l-1.48462-.57529.29693,1.85578s-2.67232,2.895-9.79851,4.0456Z"/>
          <path class="cls-5" d="M68.54886,134.906l-.499-.08812c1.69655-9.62531,10.2669-23.19568,10.35353-23.33182l.42773.27227C78.74546,111.893,70.22808,125.3797,68.54886,134.906Z"/>
          <path class="cls-5" d="M71.07908,135.03867l-.36337-.35346a66.6863,66.6863,0,0,1,14.16593-10.69858l.2396.44653A66.13229,66.13229,0,0,0,71.07908,135.03867Z"/>
        </g>
        <g>
          <path class="cls-5" d="M196.08964,134.86185s1.6648-19.85971-11.45567-24.34925,9.96078,24.34925,9.96078,24.34925Z"/>
          <path class="cls-5" d="M192.74361,134.86185s-6.755-13.76988-14.772-12.8791,12.61929,12.8791,12.61929,12.8791Z"/>
          <path class="cls-4" d="M195.63874,134.98867a.12653.12653,0,0,1-.12079-.08861c-3.857-12.257-8.22381-19.84418-14.1585-24.60213a.12679.12679,0,0,1,.1584-.198c5.97678,4.79112,10.36889,12.41641,14.24169,24.72391a.12623.12623,0,0,1-.08268.15891A.13.13,0,0,1,195.63874,134.98867Z"/>
          <path class="cls-4" d="M191.82486,134.98867a.12659.12659,0,0,1-.10149-.051,37.80187,37.80187,0,0,0-15.261-12.36888.12689.12689,0,0,1-.07475-.16288.12553.12553,0,0,1,.16287-.07475,38.08626,38.08626,0,0,1,15.37583,12.455.12643.12643,0,0,1-.02574.17723A.12444.12444,0,0,1,191.82486,134.98867Z"/>
        </g>
      </g>
      <g id="object">
        <g>
          <path class="cls-6" d="M104.84731,101.37242l-.011-.00834q-.19-.15141-.36922-.31156a.23526.23526,0,1,1,.313-.35134q.17027.1518.35005.29572a.23515.23515,0,0,1-.28281.37552Z"/>
          <path class="cls-6" d="M103.81057,100.39a.23347.23347,0,0,1-.03966-.0354,9.41867,9.41867,0,0,1-.61392-.76795.23518.23518,0,1,1,.38216-.2742,8.98478,8.98478,0,0,0,.5829.7291.23519.23519,0,0,1-.31148.34845Zm-1.11852-1.5536a.23714.23714,0,0,1-.06726-.07352c-.16083-.276-.31372-.56717-.45558-.86519a.23525.23525,0,0,1,.42475-.20239c.13631.28677.28328.56645.43717.83077a.23517.23517,0,0,1-.33908.31033Zm-.827-1.72762a.234.234,0,0,1-.083-.10608q-.17652-.45174-.32721-.91612a.23536.23536,0,0,1,.44762-.14568c.09782.3006.20262.5977.31749.89011a.23518.23518,0,0,1-.35486.27777Zm-.59441-1.8224a.23334.23334,0,0,1-.09115-.13039q-.126-.46828-.23338-.93973a.2352.2352,0,1,1,.45846-.10535c.07046.30823.14615.61624.229.922a.23518.23518,0,0,1-.363.25345Zm-.42919-1.86973a.23434.23434,0,0,1-.095-.1472c-.06087-.31383-.11741-.62741-.17085-.93822l.231-.05033.23439-.01863c.051.29672.10691.60646.16734.91773a.23518.23518,0,0,1-.36683.23665Zm-.21289-1.90175a.23429.23429,0,0,1-.09923-.18733q-.00919-.48774.00544-.971a.2353.2353,0,1,1,.47037.01453q-.01482.47157-.00553.94727a.23517.23517,0,0,1-.371.19651Zm.05792-1.91539a.23446.23446,0,0,1-.09831-.21089q.03872-.48506.09982-.96437a.23529.23529,0,0,1,.46682.05929q-.05945.46783-.0982.943a.23528.23528,0,0,1-.37013.173Zm.24374-1.902a.2346.2346,0,0,1-.09578-.23273q.08479-.47859.19017-.95048a.23511.23511,0,0,1,.459.10214q-.103.46144-.18577.93a.2351.2351,0,0,1-.36761.15111Zm.41875-1.87094a.23488.23488,0,0,1-.09111-.25364q.12672-.46746.27253-.9293a.235.235,0,0,1,.44846.14085q-.14295.45343-.26694.91187a.23507.23507,0,0,1-.36294.13022Zm.578-1.828a.23567.23567,0,0,1-.08536-.27208q.165-.45472.34622-.903a.23514.23514,0,0,1,.306-.13.23252.23252,0,0,1,.13.306q-.17776.44061-.33966.88739a.23548.23548,0,0,1-.30144.14113A.2433.2433,0,0,1,101.927,83.99862Zm.71943-1.77734a.235.235,0,0,1-.07817-.2878q.19788-.44157.41095-.87519a.235.235,0,1,1,.422.20682q-.2091.42643-.404.86066a.23478.23478,0,0,1-.3106.11831A.2228.2228,0,0,1,102.64639,82.22128Zm.84441-1.72175a.2352.2352,0,0,1-.07126-.30234q.22689-.4265.46657-.84564a.23538.23538,0,0,1,.4089.23328q-.23588.413-.46037.83371a.23523.23523,0,0,1-.318.097Zm.95229-1.66507a.23505.23505,0,0,1-.0648-.31464q.2523-.4123.51483-.81682a.23537.23537,0,0,1,.39474.25646q-.25937.39844-.50815.80579a.2352.2352,0,0,1-.32323.07813Zm1.04487-1.60822a.23522.23522,0,0,1-.058-.325q.1557-.227.31461-.45064l.24121-.33743a.23544.23544,0,0,1,.32651-.05414l.00187.00133a.23518.23518,0,0,1,.05281.32838l-.23894.33425q-.15726.22084-.31024.44445a.23546.23546,0,0,1-.32683.06095Z"/>
          <path class="cls-6" d="M106.61609,75.66655l-.00662-.005a.23512.23512,0,0,1-.04462-.32962l.28786-.37391a.23486.23486,0,0,1,.32149-.04784l.00849.00629a.23547.23547,0,0,1,.04155.33l-.28509.3708A.23535.23535,0,0,1,106.61609,75.66655Z"/>
        </g>
        <g>
          <path class="cls-6" d="M151.45894,102.22891a.23519.23519,0,0,1-.13458-.4281l.38446-.26962a.23537.23537,0,1,1,.271.38492l-.38629.27054A.23441.23441,0,0,1,151.45894,102.22891Z"/>
          <path class="cls-6" d="M152.616,101.41268a.23522.23522,0,0,1-.13688-.42671q.3824-.27285.7657-.55028a.23511.23511,0,1,1,.27651.38033q-.38445.279-.76845.553A.23732.23732,0,0,1,152.616,101.41268Zm1.5291-1.11065a.23516.23516,0,0,1-.14009-.424q.37757-.28042.75421-.56589a.23509.23509,0,0,1,.28387.37481q-.37757.28662-.75789.56865A.23511.23511,0,0,1,154.14509,100.302Zm1.50568-1.14419a.23514.23514,0,0,1-.14469-.42028q.37-.29007.73676-.58564a.23515.23515,0,1,1,.29581.36562q-.36861.29834-.74319.59024A.23086.23086,0,0,1,155.65077,99.15784Zm1.47031-1.18874a.23516.23516,0,0,1-.15112-.41523q.361-.30246.71609-.61182a.23541.23541,0,0,1,.30867.35552q-.35828.31073-.72253.61641A.23339.23339,0,0,1,157.12108,97.9691Zm1.42621-1.24294a.23516.23516,0,0,1-.15847-.4088q.34794-.31762.68853-.64168a.23522.23522,0,1,1,.32429.34082q-.34312.32727-.69588.64811A.23359.23359,0,0,1,158.54729,96.72616Zm1.36833-1.30678a.23518.23518,0,0,1-.16673-.401q.33141-.33346.6527-.67567a.23495.23495,0,0,1,.34266.32153q-.3252.34725-.66189.68578A.23326.23326,0,0,1,159.91562,95.41938Zm1.29393-1.38074a.23517.23517,0,0,1-.17638-.39089q.31074-.35208.60861-.7138a.235.235,0,0,1,.36287.29857q-.30178.36792-.61872.72665A.23519.23519,0,0,1,161.20955,94.03864Zm1.2016-1.46158a.23183.23183,0,0,1-.14239-.04823.23461.23461,0,0,1-.04455-.32934q.28455-.37344.55349-.75605a.23537.23537,0,1,1,.38491.271q-.27421.38928-.56451.76983A.23374.23374,0,0,1,162.41115,92.57706Zm1.08631-1.54794a.23511.23511,0,0,1-.198-.36241l.07166-.11207a.23193.23193,0,0,1,.0395-.06247q.1936-.30867.37573-.62285a.235.235,0,1,1,.407.23518c-.04823.08359-.09692.16627-.14652.24895.14285-.02251.2834-.04961.4212-.08038a.235.235,0,0,1,.10381.45841,7.15171,7.15171,0,0,1-.84379.13826l-.03261.05144A.2353.2353,0,0,1,163.49746,91.02912Zm-.84057-.2834a.23654.23654,0,0,1-.07073-.011,3.64483,3.64483,0,0,1-.9081-.43544.23518.23518,0,1,1,.25815-.39318,3.202,3.202,0,0,0,.79142.38032.23513.23513,0,0,1-.07074.45933Zm2.76515-.28341a.23527.23527,0,0,1-.085-.45473,5.96283,5.96283,0,0,0,.8199-.39089.23518.23518,0,0,1,.23426.40788,6.44826,6.44826,0,0,1-.88421.42212A.2394.2394,0,0,1,165.422,90.46231Zm-4.33743-.73125a.23411.23411,0,0,1-.17-.07257,4.98572,4.98572,0,0,1-.60815-.78315.23512.23512,0,0,1,.39778-.2508,4.51588,4.51588,0,0,0,.55027.70874.23517.23517,0,0,1-.17.39778Zm5.9708-.20486a.23517.23517,0,0,1-.1456-.41982,6.71124,6.71124,0,0,0,.67521-.61366.23519.23519,0,1,1,.339.32612,7.131,7.131,0,0,1-.723.65684A.2348.2348,0,0,1,167.05541,89.5262Zm-2.61173-.13366a.23249.23249,0,0,1-.10795-.02618.23532.23532,0,0,1-.10105-.31694q.21428-.41409.40743-.83919a.235.235,0,1,1,.42809.19384q-.19706.43613-.41753.86123A.23519.23519,0,0,1,164.44368,89.39254Zm3.92219-1.22044a.23517.23517,0,0,1-.18786-.37664,8.7481,8.7481,0,0,0,.51307-.76387.23506.23506,0,1,1,.40329.24161,9.2767,9.2767,0,0,1-.54063.8052A.23442.23442,0,0,1,168.36587,88.1721Zm-8.28581-.03077a.23533.23533,0,0,1-.2191-.14974,4.95457,4.95457,0,0,1-.26686-.95494.23538.23538,0,1,1,.46392-.07993,4.46737,4.46737,0,0,0,.24114.864.23518.23518,0,0,1-.13366.30453A.23263.23263,0,0,1,160.08006,88.14133Zm5.14447-.469a.235.235,0,0,1-.2191-.32107c.06477-.16536.1277-.3321.18741-.49975.02434-.10289.05144-.22967.07395-.35736a.23508.23508,0,0,1,.463.08176c-.02434.13872-.05328.27652-.08727.412-.06844.19383-.13228.36516-.19889.53511A.23533.23533,0,0,1,165.22453,87.67236Zm4.11558-1.11755a.2314.2314,0,0,1-.102-.02342.23458.23458,0,0,1-.10978-.31372c.13137-.2733.25493-.55947.367-.85114a.23526.23526,0,0,1,.43912.169c-.11667.30316-.24528.60126-.38262.886A.23506.23506,0,0,1,169.34011,86.55481Zm-9.57055-.26457-.01286-.00046a.2346.2346,0,0,1-.22186-.24758,3.88218,3.88218,0,0,1,.06982-.55257c.03721-.14836.07625-.28846.12034-.42993a.23535.23535,0,0,1,.44923.14055c-.04134.13229-.07855.26412-.1107.39319a3.389,3.389,0,0,0-.05926.47448A.2352.2352,0,0,1,159.76956,86.29024Zm5.81279-.47449a.22368.22368,0,0,1-.23518-.22139V85.5668a4.77765,4.77765,0,0,0-.07716-.87089.23541.23541,0,0,1,.463-.08543,5.30609,5.30609,0,0,1,.08452.95632A.24719.24719,0,0,1,165.58235,85.81575Zm4.44124-1.02292a.22425.22425,0,0,1-.0689-.01056.23476.23476,0,0,1-.15571-.29351q.135-.44233.24436-.89868a.23524.23524,0,0,1,.45749.10978q-.113.47024-.25263.92669A.23507.23507,0,0,1,170.02359,84.79283Zm-9.73545-.311a.235.235,0,0,1-.214-.333,6.49645,6.49645,0,0,1,.47219-.85986.2353.2353,0,0,1,.39319.2586,5.92573,5.92573,0,0,0-.43728.79694A.23538.23538,0,0,1,160.28814,84.48187Zm4.93915-.49608a.23509.23509,0,0,1-.21451-.1394,2.63279,2.63279,0,0,0-.47127-.72413.23512.23512,0,1,1,.34358-.32107,3.08631,3.08631,0,0,1,.55671.8532.23508.23508,0,0,1-.11851.31073A.23777.23777,0,0,1,165.22729,83.98579Zm5.23817-1.03165a.23524.23524,0,0,1-.232-.27674q.082-.45887.1401-.923a.23778.23778,0,0,1,.26227-.20417.23519.23519,0,0,1,.2044.2625q-.05925.47576-.14377.94783A.235.235,0,0,1,170.46546,82.95414Zm-9.1227-.02962a.23519.23519,0,0,1-.16169-.40605,2.59411,2.59411,0,0,1,.86675-.56107.2351.2351,0,1,1,.16444.4405,2.1319,2.1319,0,0,0-.70782.46231A.2351.2351,0,0,1,161.34276,82.92452Zm2.60668-.27261a.23292.23292,0,0,1-.09508-.02022,2.22654,2.22654,0,0,0-.35736-.122.23374.23374,0,0,1-.04777-.01768,1.82684,1.82684,0,0,0-.43866-.15617.23512.23512,0,0,1,.09646-.46025,2.27962,2.27962,0,0,1,.52961.18419,2.6893,2.6893,0,0,1,.40788.14193.23514.23514,0,0,1-.09508.45015Zm6.75074-1.57412-.01792-.00069a.23529.23529,0,0,1-.21726-.25194c.02343-.31211.03813-.62377.04593-.93335a.23533.23533,0,0,1,.23518-.22921h.006a.23543.23543,0,0,1,.22921.24115c-.00781.31693-.02343.6364-.04686.95632A.23533.23533,0,0,1,170.70018,81.07779Z"/>
          <path class="cls-6" d="M170.74519,79.156a.23512.23512,0,0,1-.23517-.229q-.00621-.23356-.01746-.46438a.235.235,0,0,1,.22278-.24666.22669.22669,0,0,1,.24665.22323q.01241.236.01838.47541a.23561.23561,0,0,1-.22921.24137Z"/>
        </g>
        <g>
          <path class="cls-6" d="M128.46271,85.39547a.23511.23511,0,0,1-.19154-.37206c.09048-.12585.17959-.25355.26824-.3817a.23508.23508,0,0,1,.38676.26733q-.13436.195-.27192.38813A.235.235,0,0,1,128.46271,85.39547Z"/>
          <path class="cls-6" d="M129.228,84.26966a.23517.23517,0,0,1-.19751-.36287q.24045-.371.47127-.74962a.23523.23523,0,1,1,.40145.24528q-.23426.38376-.4777.75972A.23468.23468,0,0,1,129.228,84.26966Zm.9283-1.522a.23518.23518,0,0,1-.20394-.35231q.22047-.38376.43176-.77351a.23513.23513,0,0,1,.4134.22416q-.21428.39513-.43728.78361A.23494.23494,0,0,1,130.15625,82.74768Zm.84929-1.567a.23514.23514,0,0,1-.20945-.3422q.20118-.39446.3941-.79349a.23512.23512,0,0,1,.4235.2044q-.195.40375-.39869.80314A.23488.23488,0,0,1,131.00554,81.18068Zm.77489-1.60558a.23539.23539,0,0,1-.214-.333q.18465-.40306.35966-.81a.23507.23507,0,1,1,.43177.186q-.17708.41168-.36333.81967A.23538.23538,0,0,1,131.78043,79.5751Zm.70691-1.637a.235.235,0,0,1-.21773-.32406q.16812-.411.32705-.82426a.23526.23526,0,1,1,.43911.169q-.16053.41752-.33071.833A.235.235,0,0,1,132.48734,77.93806Zm.64168-1.66369a.23535.23535,0,0,1-.22094-.31579q.15226-.41752.29627-.8362a.2351.2351,0,1,1,.44463.15295q-.14538.4227-.299.84448A.23541.23541,0,0,1,133.129,76.27437Z"/>
          <path class="cls-6" d="M133.71144,74.58611a.23493.23493,0,0,1-.22369-.30821l.14331-.44577a.23519.23519,0,0,1,.44831.14239l-.14423.44945A.23544.23544,0,0,1,133.71144,74.58611Z"/>
        </g>
        <g>
          <path class="cls-7" d="M113.74192,89.08329s-10.55768-.0379-7.12175,10.88232c0,0-7.49658,1.83063-5.56,10.40484s12.34008,7.30916,12.34008,7.30916,1.34118,8.51174,11.27415,11.323,23.20815-6.43456,25.09791-10.62015c0,0,10.19847,5.37254,15.44608-2.124S166.093,94.8129,154.84815,95.509c0,0,.56224-7.15191-5.6849-9.725a10.52026,10.52026,0,0,0-10.68263,1.33362s-5.06019-9.0918-13.74372-8.02979S113.74192,89.08329,113.74192,89.08329Z"/>
          <path class="cls-8" d="M113.74218,117.43173l-.01654-.00046a.70476.70476,0,0,1-.68945-.71793,11.17961,11.17961,0,0,1,3.85835-7.54813c3.79129-3.38478,9.78919-4.75174,17.8311-4.066.41891-.79372,1.20527-2.77067-.40926-4.17621a.70564.70564,0,0,1,.13228-1.15567,3.34917,3.34917,0,0,0,1.46572-4.48441.70558.70558,0,1,1,1.29071-.57049,4.66747,4.66747,0,0,1-1.344,5.79809c1.54655,2.005.62422,4.55607-.1695,5.72736a.69224.69224,0,0,1-.6504.30637c-7.83751-.73722-13.6209.49194-17.17977,3.64936a9.954,9.954,0,0,0-3.41419,6.54955A.707.707,0,0,1,113.74218,117.43173Z"/>
          <path class="cls-8" d="M149.77183,118.3853a.70529.70529,0,0,1-.36149-.09968,14.40142,14.40142,0,0,1-6.381-7.645.70553.70553,0,0,1,1.30358-.54017,12.96378,12.96378,0,0,0,5.8013,6.97352.70558.70558,0,0,1-.36241,1.31138Z"/>
          <path class="cls-8" d="M129.95277,122.32082a.70584.70584,0,0,1-.68532-.53925c-.045-.18557-1.07483-4.57812,1.41013-7.49577,1.44918-1.70181,3.75914-2.513,6.84766-2.41561a8.50818,8.50818,0,0,1,1.93607-6.0204c1.54563-1.66047,3.89739-2.37794,6.99326-2.13312,9.76806.77351,12.112,5.73149,12.20709,5.94232a.70536.70536,0,1,1-1.28612.57967c-.01883-.039-2.16756-4.41322-11.03213-5.11553-2.63975-.20624-4.60568.35736-5.84356,1.68206-2.00956,2.15149-1.514,5.67407-1.50889,5.70944a.70647.70647,0,0,1-.1819.58564.69726.69726,0,0,1-.57094.22232c-3.04121-.23747-5.22164.39318-6.48663,1.87819-2.02288,2.37518-1.12213,6.20965-1.11249,6.24823a.70582.70582,0,0,1-.5195.85206A.71569.71569,0,0,1,129.95277,122.32082Z"/>
          <path class="cls-8" d="M127.48526,106.27375a.70607.70607,0,0,1-.67935-.51629c-.66-2.37426-.48734-4.29012.514-5.69428a5.20465,5.20465,0,0,1,2.89882-1.92688,6.69743,6.69743,0,0,1-.35231-5.10543c.65041-1.51578,2.09362-2.53411,4.29012-3.02743a6.37658,6.37658,0,0,1,5.34933.86859A8.874,8.874,0,0,1,142.57,96.39682c2.36232.40054,3.88407,1.338,4.52805,2.79088,1.1079,2.501-.92325,5.46554-1.01006,5.59048a.70558.70558,0,0,1-1.15889-.80521c.02159-.03123,1.66507-2.44729.87732-4.21708-.47908-1.07575-1.80746-1.76152-3.9493-2.039a.70563.70563,0,0,1-.61182-.63249c-.00322-.03353-.36563-3.478-2.57316-5.07419a5.03641,5.03641,0,0,0-4.207-.62974c-1.72707.38767-2.83727,1.12857-3.30027,2.20247-.87042,2.01921.69037,4.68606.706,4.71271a.7058.7058,0,0,1-.56314,1.06564,4.18475,4.18475,0,0,0-2.846,1.53047c-.73539,1.04038-.83506,2.55019-.29627,4.48718a.70594.70594,0,0,1-.49056.869A.71425.71425,0,0,1,127.48526,106.27375Z"/>
          <path class="cls-8" d="M121.5659,95.7014a.70466.70466,0,0,1-.56038-1.13178c.13826-.18052,3.45-4.39531,9.94628-2.37426A.70577.70577,0,0,1,130.532,93.543c-5.52388-1.7211-8.29132,1.73672-8.40662,1.88554A.70706.70706,0,0,1,121.5659,95.7014Z"/>
          <path class="cls-8" d="M118.15861,109.7481a.70629.70629,0,0,1-.63663-.40007c-1.71145-3.563.43223-6.663,2.24428-8.20911-2.12577-2.05365-3.16891-4.252-3.10368-6.5445.11437-4.02371,3.62-6.78151,3.76924-6.8968a.70557.70557,0,0,1,.864,1.11571c-.04318.034-3.13308,2.485-3.2231,5.83024-.05558,2.06422,1.03945,4.08664,3.25387,6.01122a.70561.70561,0,0,1-.0689,1.11755c-.17822.1208-4.35947,3.01732-2.46337,6.96478a.70538.70538,0,0,1-.63571,1.011Z"/>
          <path class="cls-8" d="M111.61824,109.32644a9.17678,9.17678,0,0,1-5.40674-1.81159.70557.70557,0,0,1,.8176-1.15016c5.18168,3.687,9.91413-.26595,10.113-.43544a.70547.70547,0,0,1,.92049,1.06932A10.911,10.911,0,0,1,111.61824,109.32644Z"/>
          <path class="cls-8" d="M114.12985,97.27736a6.83644,6.83644,0,0,1-5.36541-2.42571.70561.70561,0,0,1,1.14465-.82541c.10289.13917,2.38437,3.12159,7.29733,1.20573a.7055.7055,0,1,1,.51261,1.3146A9.85037,9.85037,0,0,1,114.12985,97.27736Z"/>
          <path class="cls-9" d="M119.11355,85.06981a.69.69,0,0,1-.25263-.04777.70271.70271,0,0,1-.406-.9058c.08727-.231,2.24932-5.64582,11.12032-3.88522a.70547.70547,0,1,1-.27468,1.38395c-7.64505-1.51486-9.4548,2.821-9.52783,3.00607A.70956.70956,0,0,1,119.11355,85.06981Z"/>
          <path class="cls-9" d="M165.23372,107.3991a.70579.70579,0,0,1-.70415-.67154,9.25107,9.25107,0,0,0-2.96542-6.67311.70548.70548,0,0,1,.87135-1.10973,10.655,10.655,0,0,1,3.50329,7.71486.70555.70555,0,0,1-.67062.7386Z"/>
          <path class="cls-9" d="M164.5778,113.70107a.70547.70547,0,0,1-.60907-1.061,4.52371,4.52371,0,0,0,.77489-3.24286.71052.71052,0,0,1,.48413-.869.70148.70148,0,0,1,.86905.469,5.81247,5.81247,0,0,1-.909,4.354A.70584.70584,0,0,1,164.5778,113.70107Z"/>
          <path class="cls-9" d="M107.08744,115.4332a.70146.70146,0,0,1-.37573-.10932c-.0689-.04364-6.85179-4.444-3.45185-11.94482a.70551.70551,0,0,1,1.2852.58243c-2.88733,6.3695,2.68339,10.0184,2.92224,10.17043a.706.706,0,0,1-.37986,1.30128Z"/>
        </g>
        <rect class="cls-10" x="83.24335" y="41.9231" width="0.62363" height="31.9131"/>
      </g>
      <g id="man_wear_yellow_tshirt" data-name="man wear yellow tshirt">
        <path class="cls-11" d="M199.60413,99.73946s3.03178,5.524,5.08722,5.72955,6.94265-3.54263,6.94265-3.54263V97.35Z"/>
        <path class="cls-12" d="M212.15018,119.11266v15.74919h33.18756a145.951,145.951,0,0,0-1.03057-17.41306C243.17952,108.34663,212.15018,119.11266,212.15018,119.11266Z"/>
        <path class="cls-13" d="M217.97466,75.20262s-12.975-6.01218-15.1332,6.80865h4.93306l3.77413,17.72819s.74787,14.20825-1.05066,19.14132c0,0,11.15077,1.74712,19.98917,1.02772a64.79273,64.79273,0,0,0,14.49088-2.67208l-.86992-7.97622,3.27222-18.02513s-2.91616-14.49087-7.74646-17.88236-11.87019-.53955-11.87019-.53955Z"/>
        <path class="cls-14" d="M218.689,99.73946H194.01734a.87587.87587,0,0,1-.82161-.63714l-4.96882-15.851a.92977.92977,0,0,1,.82161-1.24h24.67166a.87586.87586,0,0,1,.82161.63714l4.96882,15.851A.92976.92976,0,0,1,218.689,99.73946Z"/>
        <polygon class="cls-15" points="214.696 83.169 232.11 57.767 245.318 80.507 219.109 97.248 214.696 83.169"/>
        <path class="cls-16" d="M235.58723,95.39734l-2.35091-8.4787a16.99639,16.99639,0,0,0-2.58215,8.96827c.03854,5.17575,6.39756,6.21631,6.39756,6.21631Z"/>
        <path class="cls-17" d="M224.04219,63.15864l.00118-.01719a3.38215,3.38215,0,1,0-2.98765-5.48051,5.67979,5.67979,0,0,0-9.92409,5.51659l-.00221.00072s4.37872,8.787,6.38276,8.32454a4.58846,4.58846,0,0,0,1.24016-.53984l.00051.00118s1.45711,4.00722-.77819,4.23849c0,0,1.88845,3.19876,4.62472,2.35089s5.16431-4.74035,5.16431-4.74035S223.4423,68.80433,224.04219,63.15864Z"/>
        <path class="cls-17" d="M235.58723,95.39734s1.426,5.78093-1.61866,6.43611-11.50406.212-13.37323-4.18155-1.84989-4.856-1.84989-4.856-1.15619-.01927-1.002,1.09838.73225,2.717-.17343,2.6785a3.51648,3.51648,0,0,1-2.65923-1.27181c-.94422-1.002-1.83063-2.02332-2.23529-1.426,0,0,1.17545,1.77282,1.48377,2.1004s1.29107,1.53412,1.002,1.46077a3.27109,3.27109,0,0,1-1.98479-1.32588c-.59736-.96349-1.86917-1.2718-2.23529-.77079a13.04222,13.04222,0,0,1,1.44523,1.19473c.59736.59736,2.11967,1.8499,1.69574,1.81136a3.94059,3.94059,0,0,1-2.40872-1.25254c-.79006-.92495-1.81136-1.07911-2.02333-.53955a9.46636,9.46636,0,0,1,1.69574,1.31034c.501.5781,1.54158,1.13692,1.38742,1.13692a5.08931,5.08931,0,0,1-2.11967-.1927c-.501-.32758-1.05984-.212-1.19473.1927a17.35694,17.35694,0,0,0,2.64.86714,38.11468,38.11468,0,0,1,6.1856,2.20857c1.002.58555,13.29615,10.12409,19.80933,9.66161s9.55781-5.858,10.02029-11.36917a25.72061,25.72061,0,0,0-.69371-9.13387A57.39765,57.39765,0,0,0,235.58723,95.39734Z"/>
        <polygon class="cls-18" points="213.72 82.011 237.604 32.141 199.604 24.33 189.049 82.011 213.72 82.011"/>
        <path class="cls-6" d="M221.05572,57.66094a4.69027,4.69027,0,0,0,.516,2.43417,4.7966,4.7966,0,0,1-1.95267-2.00406c-.53955-1.259-1.07911-2.28668-1.95267-1.31034s-2.46653.17985-2.46653.17985-.15416,2.87762-3.05747,1.74712c0,0,1.074,2.67348-1.44136,3.36649a11.06931,11.06931,0,0,0,.43065,1.10336s-1.14751,1.20831-3.871.95138-3.05747-3.6741-2.2353-4.72751a2.12988,2.12988,0,0,1-.53955-3.0084,3.72835,3.72835,0,0,1-1.13049-4.59674c1.336-2.80054,4.75321-1.67,4.75321-1.67a4.87492,4.87492,0,0,1,3.87965-2.5693,3.398,3.398,0,0,1,3.28871,2.41514s7.3739-.84787,8.24746.43678.61912,6.01967.61912,6.01967A3.47328,3.47328,0,0,0,221.05572,57.66094Z"/>
        <path class="cls-11" d="M218.75234,70.963a8.69624,8.69624,0,0,0,3.92414-6.06324s2.38179,6.91752-3.588,9.4067C219.08847,74.30641,219.6071,73.71179,218.75234,70.963Z"/>
        <path class="cls-11" d="M223.33165,61.21275s-1.259-3.66125,1.77925-3.39148Z"/>
        <ellipse class="cls-11" cx="218.41786" cy="62.88923" rx="1.75355" ry="1.0213" transform="matrix(0.86603, -0.5, 0.5, 0.86603, -2.18217, 117.63449)"/>
        <ellipse class="cls-11" cx="213.56825" cy="65.97857" rx="1.37599" ry="0.8014" transform="matrix(0.86603, -0.5, 0.5, 0.86603, -4.37656, 115.62358)"/>
        <circle class="cls-6" cx="212.42496" cy="64.16476" r="0.4432"/>
        <circle class="cls-6" cx="217.08824" cy="61.52481" r="0.4432"/>
        <path class="cls-11" d="M235.58723,95.39734a12.79339,12.79339,0,0,1,.3236,3.23862s7.26869.76949,11.46951-7.40089A53.73816,53.73816,0,0,0,235.58723,95.39734Z"/>
        <path class="cls-14" d="M217.97466,75.20262a4.60544,4.60544,0,0,0,3.95672,2.15821c2.89047.10108,5.83231-4.54767,5.83231-4.54767s.78979-.27777.98118-.33474c0,0-1.4051,4.12446-5.182,5.67889s-6.00548-1.49534-6.7475-3.4069C216.81539,74.75041,217.60212,75.04846,217.97466,75.20262Z"/>
        <path class="cls-14" d="M235.58723,95.39734l-.45337-1.63511a32.627,32.627,0,0,1,11.82558-4.39242l.4209,1.86526S239.07506,93.64379,235.58723,95.39734Z"/>
        <path class="cls-19" d="M221.95708,134.86185l-1.0081-12.07573S211.06323,129.26076,221.95708,134.86185Z"/>
      </g>
      <g id="speech_bubble" data-name="speech bubble">
        <path class="cls-5" d="M197.443,51.49785H180.65414a3.55938,3.55938,0,1,0,0,7.11876h2.77366a6.10281,6.10281,0,0,1-1.16814,2.706s2.70005-1.45451,3.13666-2.706H197.443a3.55938,3.55938,0,0,0,0-7.11876Z"/>
        <path class="cls-4" d="M187.43268,56.67214a3.54666,3.54666,0,0,1-.3901-.02128,1.92363,1.92363,0,0,1-1.22427-.51634,3.7735,3.7735,0,0,1-1.5901.40223,2.38841,2.38841,0,0,1-1.47081-.32946,2.99783,2.99783,0,0,1-1.21089.32921,2.37067,2.37067,0,0,1-1.998-.58837,2.27376,2.27376,0,0,1-.52475-1.71164.12363.12363,0,0,1,.14158-.10991.12688.12688,0,0,1,.10991.14134,2.05168,2.05168,0,0,0,.45792,1.50694,2.15273,2.15273,0,0,0,1.79357.50916,2.82245,2.82245,0,0,0,1.00892-.25124,1.64659,1.64659,0,0,1-.298-.375,1.973,1.973,0,0,1,.02277-1.95.74878.74878,0,0,1,.68763-.40792c.4802.04356.83911.58168.83466,1.25174a1.86627,1.86627,0,0,1-.78367,1.50372,2.30578,2.30578,0,0,0,1.21733.22846,3.54518,3.54518,0,0,0,1.44209-.35322,1.30557,1.30557,0,0,1-.13861-.298,2.29112,2.29112,0,0,1,.652-2.14011.59267.59267,0,0,1,.62773-.18391c.3104.13936.45149.58812.35149,1.11684a2.45332,2.45332,0,0,1-1.10694,1.57748,1.75821,1.75821,0,0,0,1.02624.396,4.19313,4.19313,0,0,0,2.27031-.46708,1.26813,1.26813,0,0,1-.353-.599,2.25861,2.25861,0,0,1,.96733-2.12922,1.33745,1.33745,0,0,1,1.446-.278.79485.79485,0,0,1,.31584,1.02971,4.27893,4.27893,0,0,1-1.901,2.01436,2.93593,2.93593,0,0,0,1.01338.31535,6.83376,6.83376,0,0,0,3.91487-.53663,1.02467,1.02467,0,0,1-.20891-.42575,1.5841,1.5841,0,0,1,.82723-1.58565.69667.69667,0,0,1,.88961.08515.77506.77506,0,0,1,.05842.9406,2.90012,2.90012,0,0,1-1.11783,1.03812,2.99961,2.99961,0,0,0,1.453.34481.12678.12678,0,0,1-.005.25346h-.005a2.92092,2.92092,0,0,1-1.69506-.46089,6.985,6.985,0,0,1-4.149.59728,2.93655,2.93655,0,0,1-1.2302-.42525A4.67872,4.67872,0,0,1,187.43268,56.67214Zm-4.53864-3.1213a.55458.55458,0,0,0-.41981.29307,1.73138,1.73138,0,0,0-.01732,1.68664,1.36751,1.36751,0,0,0,.31337.37055,1.62259,1.62259,0,0,0,.75891-1.35125c.00347-.52822-.26188-.96634-.604-.99753Zm8.054-.48689a1.45111,1.45111,0,0,0-.83961.34109,2.00343,2.00343,0,0,0-.87525,1.86462,1.0329,1.0329,0,0,0,.347.53688,4.08825,4.08825,0,0,0,1.89555-1.92971c.11238-.3448.045-.59085-.20049-.73095A.65024.65024,0,0,0,190.94805,53.064Zm-4.30993.46436a.50474.50474,0,0,0-.297.15322,2.04121,2.04121,0,0,0-.57971,1.87378,1.07276,1.07276,0,0,0,.11733.25074,2.20279,2.20279,0,0,0,1.02327-1.42773c.07525-.39827-.01138-.751-.20643-.83862A.13757.13757,0,0,0,186.63812,53.52831Zm9.15154.3458a.6901.6901,0,0,0-.30891.08713,1.33384,1.33384,0,0,0-.69852,1.3052.775.775,0,0,0,.196.3609,2.73005,2.73005,0,0,0,1.10793-.98293.54485.54485,0,0,0-.0203-.6505A.36216.36216,0,0,0,195.78966,53.87411Z"/>
        <path class="cls-20" d="M62.78541,49.40919h9.61346a2.03814,2.03814,0,1,1,0,4.07628H70.81064a3.49456,3.49456,0,0,0,.66889,1.54945s-1.54607-.83286-1.79609-1.54945h-6.898a2.03814,2.03814,0,0,1,0-4.07628Z"/>
        <path class="cls-20" d="M249.17042,57.88037H233.79721a3.3421,3.3421,0,0,0,0,6.68215H236.337a5.80107,5.80107,0,0,1-1.06965,2.54s2.47239-1.36529,2.87219-2.54h11.03088a3.3421,3.3421,0,0,0,0-6.68215Z"/>
        <path class="cls-6" d="M198.80906,44.51065a.12406.12406,0,0,1-.06584-.01856,9.83842,9.83842,0,0,1-.85149-.57748.12664.12664,0,0,1,.15346-.20149c.201.15347.43367.31411.6802.46981a5.99435,5.99435,0,0,1-.36188-.96758.12689.12689,0,0,1,.24357-.07129,5.67753,5.67753,0,0,0,.34653.92822.12667.12667,0,0,1-.11089.18367l.03218.0198a.12662.12662,0,0,1-.06584.2349Zm-1.58367-1.25818a.12694.12694,0,0,1-.098-.04628,1.77,1.77,0,0,1-.25446-.39728H196.465a.12674.12674,0,1,1,0-.25347h.49356a.12707.12707,0,0,1,.11981.0849,1.3812,1.3812,0,0,0,.245.405.12686.12686,0,0,1-.098.20717Zm2.6411-.44356h-1.01387a.12674.12674,0,0,1,0-.25347h1.01387a.12674.12674,0,0,1,0,.25347Zm-4.41537,0h-1.01387a.12674.12674,0,0,1,0-.25347h1.01387a.12674.12674,0,0,1,0,.25347Zm-2.02774,0h-1.01386a.12674.12674,0,1,1,0-.25347h1.01386a.12674.12674,0,1,1,0,.25347Zm-2.02773,0h-1.01387a.12674.12674,0,0,1,0-.25347h1.01387a.12674.12674,0,0,1,0,.25347Zm-2.02774,0-1.01832-.001a.12693.12693,0,0,1-.12277-.13094.12526.12526,0,0,1,.13069-.12253l1.0104.001a.12674.12674,0,1,1,0,.25347Zm11.508-.06164a.12663.12663,0,0,1-.02772-.25025,2.3777,2.3777,0,0,0,.87129-.39331.12675.12675,0,1,1,.14852.20544,2.62844,2.62844,0,0,1-.96436.43491A.12129.12129,0,0,1,200.8759,42.74727Zm-13.50305-.16584a.13.13,0,0,1-.053-.01139,2.65226,2.65226,0,0,1-.85446-.62277.12684.12684,0,0,1,.18713-.17129,2.39027,2.39027,0,0,0,.77327.56337.12683.12683,0,0,1-.053.24208Zm15.10405-.98788a.12867.12867,0,0,1-.06584-.01831.127.127,0,0,1-.04257-.17426,2.37689,2.37689,0,0,0,.32228-.89976.12651.12651,0,1,1,.25049.03564,2.6229,2.6229,0,0,1-.35594.9958A.12708.12708,0,0,1,202.4769,41.59355ZM186.04165,41.125a.12606.12606,0,0,1-.1193-.08466,2.632,2.632,0,0,1-.1505-.88045c0-.05619.00149-.11213.00545-.16733a.12156.12156,0,0,1,.13465-.11807.12647.12647,0,0,1,.11782.13491c-.003.04975-.00445.09975-.00445.15049a2.38921,2.38921,0,0,0,.13564.79629.12652.12652,0,0,1-.11931.16882Zm16.71595-1.48442a.12722.12722,0,0,1-.12278-.09455,2.3641,2.3641,0,0,0-.42426-.8562.12681.12681,0,0,1,.2-.15594,2.62975,2.62975,0,0,1,.4698.94753.12688.12688,0,0,1-.09059.155A.12245.12245,0,0,1,202.7576,39.64057Zm-16.59218-.4849a.12344.12344,0,0,1-.05693-.01362.127.127,0,0,1-.05644-.17,2.64322,2.64322,0,0,1,.65347-.83119.12678.12678,0,0,1,.16436.19307,2.38759,2.38759,0,0,0-.5911.752A.12655.12655,0,0,1,186.16542,39.15567Zm15.38128-1.073a.12687.12687,0,0,1-.06188-.01609,2.3635,2.3635,0,0,0-.9109-.28911.1267.1267,0,1,1,.02673-.252,2.61792,2.61792,0,0,1,1.00793.3198.12682.12682,0,0,1-.06188.23738Zm-13.87682-.2047a.12679.12679,0,0,1-.03762-.24778,2.65654,2.65654,0,0,1,.78911-.11955h1.01387a.12674.12674,0,0,1,0,.25347h-1.01387a2.39733,2.39733,0,0,0-.71386.10816A.124.124,0,0,1,187.66988,37.87794Zm11.904-.11386h-1.01386a.12674.12674,0,1,1,0-.25347h1.01386a.12674.12674,0,1,1,0,.25347Zm-2.02773,0h-1.01387a.12674.12674,0,0,1,0-.25347h1.01387a.12674.12674,0,0,1,0,.25347Zm-2.02774,0h-1.01386a.12674.12674,0,1,1,0-.25347h1.01386a.12674.12674,0,1,1,0,.25347Zm-2.02773,0h-1.01387a.12674.12674,0,0,1,0-.25347h1.01387a.12674.12674,0,0,1,0,.25347Zm-2.02774,0h-1.01386a.12674.12674,0,1,1,0-.25347H191.463a.12674.12674,0,1,1,0,.25347Z"/>
        <g>
          <path class="cls-21" d="M167.04,28.07805H152.69927a3.04037,3.04037,0,1,0,0,6.08073h2.36921a5.2128,5.2128,0,0,1-.99781,2.31137s2.30634-1.24241,2.67929-2.31137h10.29a3.04037,3.04037,0,0,0,0-6.08073Z"/>
          <path class="cls-4" d="M158.48852,32.51652a3.02488,3.02488,0,0,1-.33466-.01832,1.67119,1.67119,0,0,1-1.047-.43663,3.25455,3.25455,0,0,1-1.354.33911,2.06359,2.06359,0,0,1-1.25793-.27822,2.589,2.589,0,0,1-1.03219.278,2.05306,2.05306,0,0,1-1.72179-.50817,1.96418,1.96418,0,0,1-.453-1.47724.12273.12273,0,0,1,.14158-.1099.12688.12688,0,0,1,.10991.14134,1.733,1.733,0,0,0,.38663,1.27253,1.82676,1.82676,0,0,0,1.51684.429,2.41769,2.41769,0,0,0,.8312-.20148,1.43157,1.43157,0,0,1-.23812-.3057,1.70607,1.70607,0,0,1,.0198-1.68516.6474.6474,0,0,1,.60446-.35668c.4198.03812.73366.50594.7297,1.08787a1.613,1.613,0,0,1-.653,1.2817,1.9914,1.9914,0,0,0,1.004.1792,3.0314,3.0314,0,0,0,1.20644-.29084,1.12151,1.12151,0,0,1-.10941-.24134,1.9756,1.9756,0,0,1,.56238-1.84753.52192.52192,0,0,1,.55545-.16015c.27278.12252.398.51386.31139.974a2.11045,2.11045,0,0,1-.93416,1.34655,1.50984,1.50984,0,0,0,.84852.31782,3.53927,3.53927,0,0,0,1.90644-.3854,1.09624,1.09624,0,0,1-.28812-.50248,1.94768,1.94768,0,0,1,.83268-1.83788,1.15868,1.15868,0,0,1,1.256-.23886.69607.69607,0,0,1,.27822.90124A3.65568,3.65568,0,0,1,160.5613,31.897a2.54549,2.54549,0,0,0,.83219.252,5.829,5.829,0,0,0,3.31239-.44629.8998.8998,0,0,1-.16782-.35371,1.373,1.373,0,0,1,.71634-1.37476.62031.62031,0,0,1,.78169.07673.67913.67913,0,0,1,.053.82476,2.466,2.466,0,0,1-.93615.878,2.60993,2.60993,0,0,0,1.20694.276.12678.12678,0,0,1-.005.25347H166.35a2.53524,2.53524,0,0,1-1.45-.39084,5.983,5.983,0,0,1-3.54408.50718,2.54668,2.54668,0,0,1-1.05-.3604A4.01454,4.01454,0,0,1,158.48852,32.51652Zm-3.87577-2.66635a.45594.45594,0,0,0-.34307.24183,1.4577,1.4577,0,0,0-.01436,1.42154,1.15662,1.15662,0,0,0,.25248.30248,1.36639,1.36639,0,0,0,.62872-1.1312c.003-.44158-.21634-.80767-.499-.83342Zm6.87925-.41585a1.21875,1.21875,0,0,0-.70545.28763,1.69359,1.69359,0,0,0-.74159,1.57327.86823.86823,0,0,0,.28169.44134,3.46233,3.46233,0,0,0,1.599-1.63218c.09307-.28515.03812-.48788-.16288-.60248A.53889.53889,0,0,0,161.492,29.43432Zm-3.68269.39629a.4151.4151,0,0,0-.2401.12624,1.72365,1.72365,0,0,0-.48961,1.58144.88514.88514,0,0,0,.08812.19407,1.85911,1.85911,0,0,0,.85-1.19754c.06287-.33193-.00693-.62451-.16584-.69579A.10124.10124,0,0,0,157.80931,29.83061Zm7.81786.2958a.57356.57356,0,0,0-.255.072,1.119,1.119,0,0,0-.58663,1.09431.639.639,0,0,0,.15346.2901,2.29953,2.29953,0,0,0,.92575-.8255.43407.43407,0,0,0-.01485-.53466A.29214.29214,0,0,0,165.62717,30.12641Z"/>
        </g>
        <g>
          <path class="cls-22" d="M31.42247,42.34352H44.99532a2.87756,2.87756,0,1,1,0,5.75512H42.753a4.934,4.934,0,0,0,.94438,2.18762s-2.18284-1.17589-2.53582-2.18762H31.42247a2.87756,2.87756,0,0,1,0-5.75512Z"/>
          <path class="cls-4" d="M44.92248,44.07995h-13.807a.12673.12673,0,0,1,0-.25346h13.807a.12673.12673,0,1,1,0,.25346Z"/>
          <path class="cls-4" d="M44.92248,45.26759h-13.807a.12674.12674,0,0,1,0-.25347h13.807a.12674.12674,0,1,1,0,.25347Z"/>
          <path class="cls-4" d="M40.84622,46.4416H31.11547a.12673.12673,0,0,1,0-.25346h9.73075a.12673.12673,0,1,1,0,.25346Z"/>
        </g>
      </g>
      <g>
        <path class="cls-23" d="M44.16151,68.932a.1769.1769,0,0,1-.071-.049,10.16874,10.16874,0,0,1-2.07724-3.55543,5.831,5.831,0,0,1,.06784-4.08408,4.58726,4.58726,0,0,1,3.35417-2.81382,6.25229,6.25229,0,0,1,5.4321,1.58148,25.42393,25.42393,0,0,1,1.85311,2.025c1.62178,1.90153,3.29887,3.86769,5.83211,4.05237A5.68328,5.68328,0,0,0,63.62632,63.622a8.67058,8.67058,0,0,0,1.343-2.7697,8.02208,8.02208,0,0,1-4.1332-.49665,9.06893,9.06893,0,0,1-4.01352-3.075c-1.19932-1.65292-1.70023-4.07176-.33725-5.4966a3.44344,3.44344,0,0,1,3.3125-1.00384,8.37746,8.37746,0,0,1,5.38441,4.64938,8.73156,8.73156,0,0,1,.26891,4.96519c.09214-.02164.18408-.04536.27513-.071a6.63031,6.63031,0,0,0,4.69482-7.47919C69.921,50.705,68.346,49.01858,66.82278,47.38768c-.47174-.505-.95948-1.02723-1.3968-1.54619-1.7249-2.04674-3.52353-4.53683-3.78484-7.4874a6.92906,6.92906,0,0,1,.41373-3.04746.17829.17829,0,0,1,.229-.10387l.00078.00029a.17823.17823,0,0,1,.10357.22982,6.57014,6.57014,0,0,0-.392,2.8898c.25258,2.85169,2.01326,5.285,3.70233,7.28912.43153.512.89453,1.00773,1.38471,1.5326,1.55517,1.66507,3.16327,3.38683,3.68506,5.619a6.99954,6.99954,0,0,1-4.94522,7.90343q-.23151.06531-.46664.11483a9.06154,9.06154,0,0,1-1.44374,3.05263,6.0285,6.0285,0,0,1-5.386,2.60986c-2.68207-.19571-4.40808-2.21938-6.07745-4.17658A25.16288,25.16288,0,0,0,50.623,60.27072a5.886,5.886,0,0,0-5.1128-1.49252,4.24,4.24,0,0,0-3.09969,2.60136c-1.05129,2.54431.31646,5.42233,1.947,7.26738a.17829.17829,0,0,1-.196.285ZM60.46216,51.34152a4.78876,4.78876,0,0,0-.73423-.21175,3.06445,3.06445,0,0,0-2.985.9007c-1.22794,1.28373-.74429,3.5075.36814,5.0408a8.419,8.419,0,0,0,7.95833,3.40126A8.40947,8.40947,0,0,0,64.8497,55.558,8.37707,8.37707,0,0,0,60.46216,51.34152Z"/>
        <g>
          <path class="cls-24" d="M64.35021,33.37816l-.8147-.94475a1.33355,1.33355,0,0,1,.139-1.88079h0a1.33355,1.33355,0,0,1,1.88079.139l.8147.94476a1.33355,1.33355,0,0,1-.139,1.88079h0A1.33355,1.33355,0,0,1,64.35021,33.37816Z"/>
          <path class="cls-25" d="M67.00716,34.01235l-3.70828-4.30027a1.33354,1.33354,0,0,1,.139-1.88079h0a1.33354,1.33354,0,0,1,1.88079.139L69.027,32.27059a1.33355,1.33355,0,0,1-.139,1.88079h0A1.33355,1.33355,0,0,1,67.00716,34.01235Z"/>
          <path class="cls-24" d="M69.18758,33.70839l-5.26743-6.10834a1.33355,1.33355,0,0,1,.139-1.88079h0a1.33356,1.33356,0,0,1,1.88079.139l5.26743,6.10834a1.33355,1.33355,0,0,1-.139,1.88079h0A1.33357,1.33357,0,0,1,69.18758,33.70839Z"/>
          <path class="cls-26" d="M89.6338,25.67594A11.16084,11.16084,0,1,0,71.63441,14.08258c-1.17031,4.00574-.17589,5.91472-6.01706,10.95177l.17-.14659,6.54245,7.5869-.01523.01313c5.859-5.05239,7.56086-3.60577,11.70033-4.22768A11.10663,11.10663,0,0,0,89.6338,25.67594Z"/>
          <path class="cls-4" d="M71.90538,28.3329a.34541.34541,0,0,1-.12729-.56326c1.1327-1.17211,3.09818-2.98175,5.39251-4.9649a.34518.34518,0,0,1,.45145.5223c-2.27941,1.9703-4.22847,3.7644-5.34747,4.92232A.34535.34535,0,0,1,71.90538,28.3329Z"/>
          <path class="cls-4" d="M78.36753,22.45356a.34525.34525,0,0,1-.10227-.58647,67.5896,67.5896,0,0,1,5.91853-4.639.34521.34521,0,0,1,.36782.58428,67.06992,67.06992,0,0,0-5.83967,4.581A.345.345,0,0,1,78.36753,22.45356Z"/>
          <path class="cls-4" d="M81.98995,20.49253a6.84,6.84,0,0,1-2.05781-1.22447,5.41127,5.41127,0,0,1-1.9974-3.82623A3.99264,3.99264,0,0,1,79.28755,12.278a2.908,2.908,0,0,1,1.7695-.72644,2.11118,2.11118,0,0,1,1.78483.845,1.87747,1.87747,0,0,1,.11719.18979.34516.34516,0,1,1-.60789.32712,1.18663,1.18663,0,0,0-.07383-.11953,1.43432,1.43432,0,0,0-1.20026-.55232,2.21894,2.21894,0,0,0-1.34265.56255,3.34256,3.34256,0,0,0-1.10976,2.61512c.08728,2.66959,2.93737,4.74862,5.33046,4.75588a.34518.34518,0,1,1-.002.69035A5.68967,5.68967,0,0,1,81.98995,20.49253Z"/>
          <path class="cls-4" d="M70.37219,26.56021a.3454.3454,0,0,1-.13316-.55709,68.27917,68.27917,0,0,1,6.32367-6.05033c.47987-.40289.98386-.8003,1.47123-1.18465a17.698,17.698,0,0,0,4.43891-4.44078.34518.34518,0,0,1,.59057.35751,18.21243,18.21243,0,0,1-4.602,4.62539c-.48332.38109-.98309.77515-1.45484,1.17123a67.58759,67.58759,0,0,0-6.25945,5.989A.34531.34531,0,0,1,70.37219,26.56021Z"/>
          <path class="cls-25" d="M71.43705,33.08926,64.8633,25.46607a1.33355,1.33355,0,0,1,.139-1.88079h0a1.33355,1.33355,0,0,1,1.88079.139l6.57375,7.6232a1.33354,1.33354,0,0,1-.139,1.88079h0A1.33356,1.33356,0,0,1,71.43705,33.08926Z"/>
        </g>
      </g>
      <g id="man_wear_red_tshirt" data-name="man wear red tshirt">
        <path class="cls-6" d="M68.3402,60.95253c-1.1871-3.06361-5.43786-1.302-5.43786-1.302-1.08559-.2632-2.68344-3.82486-5.46613-4.70458a4.01737,4.01737,0,1,0-4.1874,1.32859c-.34491.33969-.69192.72108-1.0452,1.129-1.82647,1.81734-5.19645,4.79845-8.06581,5.2723-4.17414.68931-7.77388-.03828-12.06292,5.74424,0,0,3.17847-3.638,7.54412-4.021,3.34751-.29362,5.57637-.50184,7.76054-1.8757a8.9646,8.9646,0,0,1-4.23742,1.8757c-6.51016.91906-12.982,4.13586-12.90541,12.67565s8.87818,8.83767,8.87818,8.83767,4.98462.96585,10.882,2.34447S64.43414,81.785,66.6208,78.69926s.111-4.72642-.69318-7.82831S69.52735,64.01614,68.3402,60.95253Z"/>
        <g>
          <path class="cls-6" d="M32.07488,68.42a14.22071,14.22071,0,0,1,4.21394-3.08536q.11328-.51819.23292-1.00422A13.52351,13.52351,0,0,0,32.07488,68.42Z"/>
          <path class="cls-6" d="M52.34443,63.62209c-3.04068-.75423-2.77537,5.17676-11.72975,9.77857-5.31564,2.73178-5.39979-2.24753-4.59036-6.74546-3.39682,1.9285-5.83473,5.163-5.78761,10.41953.07661,8.53976,8.87818,8.83767,8.87818,8.83767s4.98462.96585,10.882,2.34447S64.43414,81.785,66.6208,78.69926s.111-4.72642-.69318-7.82831c-.00383-.01481-.00345-.03013-.00707-.045-.24683-.15238-.505-.30784-.78262-.46982C61.16973,68.04147,55.38511,64.37632,52.34443,63.62209Z"/>
        </g>
        <path class="cls-21" d="M38.211,122.98887a54.409,54.409,0,0,0-4.33624,11.873H63.74483l2.04281-15.80205Z"/>
        <path class="cls-27" d="M49.26933,81.17226c-2.27217-1.76154-4.87623-4.3656-7.42923-.485s-8.27171,17.92205-9.395,22.16-1.99134,6.73991,1.2765,6.791,7.00782-.02064,7.00782-.02064a85.44509,85.44509,0,0,1-2.76985,8.803c-1.37862,3.37-1.94028,4.44221-1.94028,4.44221s5.923,3.93162,11.69274,2.8083,15.47117-7.04627,18.38158-6.58673c0,0,.817-8.6802,1.0212-12.05016,0,0,2.553,3.21678,4.95282,2.34876S82.8105,92.02253,82.8105,92.02253l-5.02418-5.71871S72.22078,95.852,72.0676,95.852,70.22944,79.05349,66.451,78.67045s-8.75677,2.69333-8.75677,2.69333Z"/>
        <path class="cls-17" d="M65.39612,69.30856l.0093-.0435-.00265-.00013a5.77618,5.77618,0,0,0-10.01766-4.88861,3.76944,3.76944,0,1,0-2.50477,6.71626l-.01127.00812s-1.34034,9.68862-3.59974,10.07156c0,0,2.8721,5.09325,6.1655,4.36566s2.2594-4.17414,2.2594-4.17414-1.41564-.96005.15382-4.21378l.00231-.00559a7.98894,7.98894,0,0,0,1.75109.50781c1.38968.28571,2.8612-.84612,3.75708-2.69548a22.79193,22.79193,0,0,0,2.00566-5.50484C65.37483,69.4041,65.38666,69.35681,65.39612,69.30856Z"/>
        <path class="cls-17" d="M54.76916,98.78876l-.4449,6.22854s5.31024-.30636,6.33144-.30636,1.40415-.97014,1.99134-1.37862,2.65511-1.55733,2.7317-2.09346l.07659-.53613s-.05106-3.11466-.45954-3.21678c0,0-4.90175,1.0212-5.38682.45954l-.02553-.66378a1.895,1.895,0,0,0-1.91475,0A25.43177,25.43177,0,0,1,54.76916,98.78876Z"/>
        <path class="cls-17" d="M78.58874,87.21716,82.139,91.24883s3.6637-3.17387,3.89347-3.53767-.45954-.59357-.45954-1.07226.34466-1.26374.05744-1.66583-.74675-.55528-.70845-.86164.03829-.38295.03829-.38295a9.1196,9.1196,0,0,1-.45954-1.07226s3.31252-4.63369,2.58491-5.13153-4.34648,4.26989-4.84431,4.51881-1.302-.26806-1.66583.59357S78.58874,87.21716,78.58874,87.21716Z"/>
        <path class="cls-6" d="M65.13793,65.0501c-1.508-3.94438-2.04412-3.638-5.45238-3.638s-7.34112,2.21-7.34112,2.21,1.39995,3.38167,4.77733,3.26619a9.14916,9.14916,0,0,0,5.99351-2.2897c-.35652,1.07322-1.21248,4.20461.45724,5.449,0,0-.7276-.651-.63188-2.56577a7.044,7.044,0,0,1,.57268-2.48453c-.15264,1.62247-.21234,4.83463,1.62462,5.35885C65.13793,70.35615,66.64592,68.99449,65.13793,65.0501Z"/>
        <path class="cls-11" d="M57.84805,77.15c-2.56641-1.18583-3.945-5.01532-3.945-5.01532s-1.413,6.31867,3.21874,7.81217A8.87681,8.87681,0,0,1,57.84805,77.15Z"/>
        <ellipse class="cls-11" cx="58.6133" cy="71.44537" rx="0.81696" ry="1.45521" transform="translate(-31.39963 92.36504) rotate(-63.71848)"/>
        <ellipse class="cls-11" cx="63.53749" cy="73.40067" rx="0.67777" ry="1.20728" transform="translate(-30.40896 97.86974) rotate(-63.71848)"/>
        <path class="cls-11" d="M54.76916,98.78876a6.91285,6.91285,0,0,1,1.70076,6.1093l-2.14566.11924Z"/>
        <path class="cls-11" d="M78.58874,87.21716l.7008-1.6081s2.8621,2.46624,2.84949,5.63977Z"/>
        <path class="cls-28" d="M40.72939,109.61758l12.26393-.84767s-3.92315,7.53239-13.742,5.99383Z"/>
        <path class="cls-28" d="M52.99332,98.17526l-10.18306.84249S46.76062,92.04806,52.99332,98.17526Z"/>
        <path class="cls-28" d="M67.11478,107.03416l.56166-8.98655s4.43854,3.93638,2.27033,11.21A8.24037,8.24037,0,0,1,67.11478,107.03416Z"/>
        <polygon class="cls-29" points="53.903 108.77 54.746 98.048 52.993 98.175 51.99 108.839 53.903 108.77"/>
        <polygon class="cls-29" points="77.786 86.304 76.948 87.738 81.97 93.656 82.811 92.023 77.786 86.304"/>
        <path class="cls-29" d="M49.26933,81.17226a1.80381,1.80381,0,0,0,.8949-.65945s1.90063,3.74223,4.46639,4.02944,2.66044-3.74156,2.66044-3.74156a2.10226,2.10226,0,0,0,.40317.56309s1.24458,3.58057-2.47,4.4805S49.26933,81.17226,49.26933,81.17226Z"/>
        <path class="cls-14" d="M54.74551,134.86185l2.64235-9.42057s4.90176,2.37429,3.14019,9.42057Z"/>
        <path class="cls-29" d="M59.609,97.94549V94.34576l5.43788-.19147L64.99579,97.486S61.52372,98.97945,59.609,97.94549Z"/>
        <polygon class="cls-29" points="59.283 94.384 65.277 94.154 65.277 93.274 59.283 93.561 59.283 94.384"/>
        <circle class="cls-5" cx="62.33429" cy="96.42007" r="1.27012"/>
        <circle class="cls-6" cx="60.23126" cy="69.32957" r="0.43082"/>
        <circle class="cls-6" cx="64.42456" cy="70.91881" r="0.43082"/>
        <path class="cls-11" d="M51.41384,65.299s2.87213.651,1.14885,3.67632Z"/>
      </g>
      <g>
        <path class="cls-4" d="M145.6536,78.26274l-.01311.0017-28.966,3.45688a.43172.43172,0,0,1-.48-.37763l-.66076-5.5358a.4312.4312,0,0,1,.08941-.31832.42235.42235,0,0,1,.28829-.16176l28.96617-3.45691a.43176.43176,0,0,1,.48.37771l.66058,5.53582A.432.432,0,0,1,145.6536,78.26274Zm-28.65253,2.54964,28.10828-3.35453-.55828-4.678L116.4426,76.13438Z"/>
        <path class="cls-30" d="M155.75031,77.26341l-.01311.0017-5.94116.709a.43172.43172,0,0,1-.48-.37762l-.70914-5.94124a.43131.43131,0,0,1,.08942-.31834.41935.41935,0,0,1,.28829-.16174l5.94133-.70907a.43186.43186,0,0,1,.48.37773l.70893,5.94125A.432.432,0,0,1,155.75031,77.26341Zm-5.62771-.19822,5.08346-.60667-.60667-5.08346-5.08363.6067Z"/>
        <ellipse class="cls-31" cx="131.66806" cy="75.66758" rx="14.14841" ry="27.26143" transform="translate(20.13803 178.73607) rotate(-72.62733)"/>
        <polygon class="cls-32" points="105.65 67.528 108.349 56.41 162.09 76.137 157.686 83.807 105.65 67.528"/>
        <polygon class="cls-31" points="189.34 73.025 141.606 82.26 89.883 47.983 137.618 38.748 189.34 73.025"/>
        <path class="cls-23" d="M141.18239,78.5939a.47686.47686,0,0,1-.33423-.07414L89.12582,44.24328a.477.477,0,0,1,.17289-.86582l47.73507-9.23519a.46626.46626,0,0,1,.35407.07067l18.69,12.386a.477.477,0,1,1-.52695.79515L137.02343,35.11588,90.62511,44.09245l50.58744,33.52438,46.39835-8.97655L162.49571,51.99636a.477.477,0,1,1,.52695-.79515l26.08753,17.28823a.477.477,0,0,1-.17291.86583l-47.73506,9.23517Z"/>
        <path class="cls-26" d="M144.52553,52.39941c3.67178,1.14875,6.16505,3.6248,5.56887,5.53038s-4.056,2.5192-7.72784,1.37045-6.165-3.62477-5.56884-5.53039S140.85377,51.25064,144.52553,52.39941Z"/>
        <path class="cls-26" d="M174.70566,91.84075c-.02782.00417-.0557.008-.084.01129a2.76433,2.76433,0,0,1-3.07237-2.4174l-.47085-3.94571a2.76444,2.76444,0,0,1,2.33335-3.06109c.02781-.00417.05569-.008.084-.01127a2.76432,2.76432,0,0,1,3.07237,2.41737l.47086,3.94573A2.76445,2.76445,0,0,1,174.70566,91.84075Z"/>
        <path class="cls-26" d="M174.01623,86.44283l-.03933.00534a1.296,1.296,0,0,1-1.44036-1.13311l-1.07428-9.00253-27.893-19.504a1.29584,1.29584,0,0,1,1.48519-2.12392l28.36826,19.83648a1.29641,1.29641,0,0,1,.54414.90844L175.11,85.00782A1.296,1.296,0,0,1,174.01623,86.44283Z"/>
      </g>
    </g>
    <g>
      <path class="cls-13" d="M319.52959,83.22655V65.30468h-6.89747V60.123h19.93457v5.18164H325.471V83.22655Z"/>
      <path class="cls-13" d="M338.60673,83.58984a5.716,5.716,0,0,1-4.53808-1.86524,7.67975,7.67975,0,0,1-1.63379-5.23144V65.668h5.61035V75.833a3.43094,3.43094,0,0,0,.71,2.31055,2.52839,2.52839,0,0,0,2.03027.82519,2.92623,2.92623,0,0,0,2.11231-.792,2.67238,2.67238,0,0,0,.82519-2.01367V65.668h5.61036V83.22655h-5.24805l-.165-2.17871a6.11935,6.11935,0,0,1-2.27734,1.84864A6.82968,6.82968,0,0,1,338.60673,83.58984Z"/>
      <path class="cls-13" d="M355.37236,83.22655v-12.707h-3.03613V65.668h3.03613V61.24511h5.61133V65.668h3.26758v4.85156h-3.26758v12.707Z"/>
      <path class="cls-13" d="M375.43974,83.55663a10.00224,10.00224,0,0,1-4.90039-1.18847,9.02357,9.02357,0,0,1-3.416-3.23438,9.40962,9.40962,0,0,1,0-9.38965,8.98448,8.98448,0,0,1,3.416-3.251,10.699,10.699,0,0,1,9.80176,0,8.863,8.863,0,0,1,3.39941,3.251,9.02291,9.02291,0,0,1-3.39941,12.624A10.00873,10.00873,0,0,1,375.43974,83.55663Zm0-4.78613a3.54743,3.54743,0,0,0,2.77246-1.2207,4.48459,4.48459,0,0,0,1.08985-3.10254,4.59653,4.59653,0,0,0-1.08985-3.15235,3.52746,3.52746,0,0,0-2.77246-1.2373,3.57615,3.57615,0,0,0-2.78808,1.2373,4.55109,4.55109,0,0,0-1.10645,3.15235,4.44092,4.44092,0,0,0,1.10645,3.10254A3.59669,3.59669,0,0,0,375.43974,78.7705Z"/>
      <path class="cls-13" d="M388.41044,83.22655V65.668h5.28028l.09863,2.60742a7.15108,7.15108,0,0,1,2.26172-2.14551,5.564,5.564,0,0,1,2.9209-.82519,5.87257,5.87257,0,0,1,1.08887.09961,8.684,8.684,0,0,1,.957.23047l-1.51856,6.17187a5.09144,5.09144,0,0,0-.99023-.3789,4.84305,4.84305,0,0,0-1.35254-.18164,2.96937,2.96937,0,0,0-2.26074.92382,3.35764,3.35764,0,0,0-.875,2.40918v8.64746Z"/>
      <path class="cls-13" d="M406.82646,62.26855a3.56669,3.56669,0,0,1-2.40918-.74317,2.86681,2.86681,0,0,1,.0166-4.1084,3.43091,3.43091,0,0,1,2.39258-.792,3.63261,3.63261,0,0,1,2.42578.74219,2.56045,2.56045,0,0,1,.875,2.0625,2.63514,2.63514,0,0,1-.875,2.04687A3.48092,3.48092,0,0,1,406.82646,62.26855Zm-2.77246,20.958V65.668h5.57812V83.22655Z"/>
      <path class="cls-13" d="M421.01884,83.52343a6.82157,6.82157,0,0,1-3.91113-1.17188,8.07212,8.07212,0,0,1-2.73926-3.23437,11.52686,11.52686,0,0,1,0-9.42285,8.00623,8.00623,0,0,1,2.77246-3.21778,7.15118,7.15118,0,0,1,4.043-1.17187,6.50866,6.50866,0,0,1,3.00391.66016,6.63448,6.63448,0,0,1,2.14551,1.71679V65.668H431.845V83.22655h-5.64454V81.21288a6.8827,6.8827,0,0,1-2.21093,1.667A6.697,6.697,0,0,1,421.01884,83.52343Zm1.584-4.65332a3.39832,3.39832,0,0,0,2.75586-1.20508,4.90365,4.90365,0,0,0,1.00683-3.251,4.85425,4.85425,0,0,0-1.00683-3.21777,3.40123,3.40123,0,0,0-2.75586-1.20508,3.36484,3.36484,0,0,0-2.72266,1.20508,4.85947,4.85947,0,0,0-1.00683,3.21777,4.90889,4.90889,0,0,0,1.00683,3.251A3.36194,3.36194,0,0,0,422.60283,78.87011Z"/>
      <path class="cls-13" d="M436.53154,83.22655V58.80273h5.61035V83.22655Z"/>
      <path class="cls-13" d="M452.76884,83.55663a12.07468,12.07468,0,0,1-4.63672-.82519,8.24672,8.24672,0,0,1-3.18554-2.21094l3.36621-2.9043a6.18738,6.18738,0,0,0,2.32715,1.48438,7.28134,7.28134,0,0,0,2.42578.46289,2.17338,2.17338,0,0,0,1.32031-.34668,1.08357,1.08357,0,0,0,.46191-.9082,1.05077,1.05077,0,0,0-.56054-.957,14.92192,14.92192,0,0,0-2.77246-.89062,9.72268,9.72268,0,0,1-4.48926-2.17871A4.44959,4.44959,0,0,1,445.97,72.74706a4.97822,4.97822,0,0,1-.36329-1.93066,4.53451,4.53451,0,0,1,.99024-2.9209,6.43657,6.43657,0,0,1,2.624-1.91406,9.02066,9.02066,0,0,1,3.48145-.67676,11.65121,11.65121,0,0,1,4.10937.71A10.45881,10.45881,0,0,1,460.096,67.9453l-2.9043,3.26758a8.46872,8.46872,0,0,0-2.0957-1.38672,5.52728,5.52728,0,0,0-2.39355-.59375q-1.71534,0-1.71582,1.25391a1.21192,1.21192,0,0,0,.69336,1.08984,6.98839,6.98839,0,0,0,1.02246.41211q.72655.24756,2.01367.61035a15.92508,15.92508,0,0,1,2.67383.97364,5.8052,5.8052,0,0,1,1.78222,1.27148,4.055,4.055,0,0,1,1.05567,2.83789,4.981,4.981,0,0,1-.97364,3.03613,6.56779,6.56779,0,0,1-2.65722,2.08008A9.22124,9.22124,0,0,1,452.76884,83.55663Z"/>
    </g>
    <g>
      <path class="cls-33" d="M395.95728,118.792l.39482,1.81286c.62085-.06535,1.22909-.124,1.83595-.19445,1.02539-.1191,2.04917-.25233,3.075-.3675a2.24014,2.24014,0,0,1,2.60315,1.84592q.89344,4.00054,1.76778,8.00535a1.38357,1.38357,0,0,1-1.06688,1.84241q-3.7704,1.20119-7.54285,2.39593c-1.12768.35784-1.68285.05255-1.99155-1.092-.01343-.04982-.03324-.09792-.06066-.17756h-.52026q-10.74646,0-21.49294.00462a5.73556,5.73556,0,0,1-5.27028-2.8133,5.79745,5.79745,0,0,1,4.90516-8.79262c4.29277-.04365,8.58629-.015,12.8795-.01588q3.24-.00071,6.48008-.00009h.47766l-.50858-2.32547c-.78306.08549-1.55361.14663-2.3167.25859-1.00707.14775-2.00365.37844-3.014.48732a5.4102,5.4102,0,0,1-1.50592-.1488,43.99232,43.99232,0,0,0-12.17821-.54426c-1.3462.13147-2.6878.32381-4.02473.53186a1.75362,1.75362,0,0,1-2.05548-1.7368c.03128-6.60068.01489-13.20159.01566-19.80242a1.56532,1.56532,0,0,1,1.39-1.68668,46.14815,46.14815,0,0,1,11.291-.75012,48.49761,48.49761,0,0,1,6.46027.80341,2.40817,2.40817,0,0,0,.87172-.0607,45.99829,45.99829,0,0,1,12.97725-.61611c1.46572.13763,2.92283.38286,4.3772.61991a1.5552,1.5552,0,0,1,1.44735,1.7543q.00055,9.84087,0,19.68175a1.67312,1.67312,0,0,1-2.06417,1.77769,46.89058,46.89058,0,0,0-7.15891-.697C396.30187,118.7906,396.1691,118.792,395.95728,118.792Zm-10.53012-.84927V97.869a45.09793,45.09793,0,0,0-16.94367-.00308v20.072A47.09311,47.09311,0,0,1,385.42716,117.94271Zm18.62049-.02775v-.52114q0-5.9763,0-11.9526,0-3.60188.00167-7.20376c.00023-.20969.01314-.37571-.27772-.42756a46.60629,46.60629,0,0,0-6.55073-.71648,45.27372,45.27372,0,0,0-7.94509.40772c-.73851.10452-1.47242.24149-2.203.36267v20.04567l4.48649-.60663c-.07057-.33007-.14745-.65363-.20818-.9802a2.12078,2.12078,0,0,1,1.63414-2.45035,1.88492,1.88492,0,0,1,2.226,1.58344,11.00293,11.00293,0,0,1,.27513,1.2549c.04473.37984.22067.4533.57045.47252,1.72616.09485,3.45242.2,5.17482.34642C402.1495,117.60761,403.05964,117.77661,404.04765,117.915Zm-10.35357,13.33792.02105-.09325c-.09751-.06379-.19292-.13111-.29286-.19083-1.18489-.708-2.38049-1.39884-3.549-2.13288a6.14131,6.14131,0,0,1-.78451-.77394.64868.64868,0,0,0-.37481-.19657q-4.78886-.01615-9.57775.00216a.4989.4989,0,0,0-.36812.24519A2.74366,2.74366,0,0,1,376.112,129.918a2.67587,2.67587,0,0,1-2.604-1.80376.37206.37206,0,0,0-.42121-.26119c-.59.011-1.18043.008-1.7706.00229-.57568-.00559-.91723-.29761-.92706-.77912-.01-.4911.35-.81839.93129-.82717.57669-.00872,1.154-.01476,1.73025.00329a.49708.49708,0,0,0,.546-.33163,2.79677,2.79677,0,0,1,5.06508.00106.47479.47479,0,0,0,.50075.33153c3.28648-.01,6.573-.00327,9.85947-.01553a.81527.81527,0,0,0,.5153-.20989,2.28388,2.28388,0,0,1,2.97208-.364c.3161.18645.63161.37388,1.03223.6111-.23125-1.05376-.45684-2.00275-.64052-2.95979-.06828-.35573-.20107-.46546-.57258-.46452q-8.22963.02084-16.45935.00959c-1.07314,0-2.14651-.01387-3.21939.00315a4.19907,4.19907,0,1,0,.2889,8.38848q10.18147.00385,20.36294.001Zm9.81541-3.40419c-.0173-.1266-.02337-.21882-.04305-.308q-.57543-2.60829-1.1555-5.21554c-.13615-.60656-.34774-.74538-.972-.6719q-2.59491.30546-5.18956.61319c-.84877.10012-1.102-.08777-1.28538-.92684-.40024-1.83115-.80069-3.66231-1.21869-5.48943-.03423-.14963-.20283-.26852-.309-.40169a3.94018,3.94018,0,0,0-.3926.48938c-.04166.07075.019.206.04193.30993q1.24408,5.64854,2.491,11.29644a.8439.8439,0,0,1-1.34332.96459q-1.23486-.7537-2.48569-1.48114a.65224.65224,0,0,0-1.04649.38275c1.59523.95062,3.19114,1.908,4.798,2.84662a.68354.68354,0,0,0,.48511.00539c1.61039-.50064,3.21639-1.01544,4.82375-1.52584C401.63623,128.44181,402.56482,128.148,403.50949,127.84869Zm.36157,1.57575-7.45654,2.37135.17569.78968,7.46123-2.37326Zm-26.54849-2.27089a1.20574,1.20574,0,0,0-1.15886-1.24156,1.20392,1.20392,0,1,0-.074,2.4067A1.20137,1.20137,0,0,0,377.32257,127.15355Z"/>
      <path class="cls-33" d="M376.91188,104.61161c1.55494.18421,3.05839.34962,4.55777.54616.60459.07926.87083.33022.91871.74077a.79549.79549,0,0,1-.99535.8791,19.78965,19.78965,0,0,0-4.9175-.42474c-1.29495.07523-2.58459.25451-3.87378.41077-.61574.07463-1.00446-.11359-1.08677-.59473-.089-.52.1757-.89224.80284-.97989C373.85471,104.97425,375.39721,104.79938,376.91188,104.61161Z"/>
      <path class="cls-33" d="M376.9428,108.25306c1.56806.19564,3.12352.377,4.67468.58983a.80185.80185,0,0,1,.76358.97727.82681.82681,0,0,1-1.06023.60081,21.90011,21.90011,0,0,0-8.749,0,.81129.81129,0,1,1-.30287-1.57762C373.82066,108.63367,375.37579,108.44918,376.9428,108.25306Z"/>
      <path class="cls-33" d="M376.96706,100.96383c1.55012.189,3.09056.3734,4.62981.5672a.84718.84718,0,0,1,.76191.56991.7778.7778,0,0,1-.89368,1.02822c-.59855-.06243-1.18971-.19252-1.78713-.2694a21.97148,21.97148,0,0,0-6.88326.21448c-.03944.00738-.07758.02165-.117.02912-.64519.1222-1.08022-.10164-1.16427-.59846-.088-.52016.21036-.897.85666-.98229C373.89475,101.32133,375.42331,101.14955,376.96706,100.96383Z"/>
      <path class="cls-33" d="M376.96329,111.91185c1.5519.1891,3.09242.373,4.63163.56715a.83783.83783,0,0,1,.77385.607.76569.76569,0,0,1-.86134.99226c-.61215-.05766-1.21667-.19161-1.82737-.2701a21.99418,21.99418,0,0,0-6.8834.2138c-.06578.01229-.1303.03184-.1963.0424-.5931.09495-1.0055-.13679-1.08665-.60925-.08736-.50859.20371-.89662.81465-.9778C373.86614,112.273,375.408,112.0995,376.96329,111.91185Z"/>
      <path class="cls-33" d="M390.3236,107.54893c0-.925-.00828-1.85006.00188-2.77493a1.80582,1.80582,0,0,1,2.65392-1.74158c2.20436.93735,4.40082,1.8933,6.6021,2.83794a1.83077,1.83077,0,0,1,.00341,3.4344c-2.201.94539-4.3973,1.90168-6.6019,2.83853a1.80661,1.80661,0,0,1-2.65742-1.739C390.3149,109.45262,390.32359,108.50073,390.3236,107.54893Zm1.60989.03323c0,.91109-.00284,1.82219.00123,2.73326.00195.43862.07964.4945.46835.32765q3.22635-1.3849,6.44751-2.78183a1.449,1.449,0,0,0,.31741-.26857,1.35706,1.35706,0,0,0-.30934-.27261q-3.21963-1.40009-6.44682-2.78282c-.39855-.17126-.4745-.122-.47681.31166C391.93016,105.76,391.93354,106.67107,391.93349,107.58216Z"/>
    </g>
    <g>
      <g>
        <path class="cls-33" d="M307.91474,26.62161V43.67954h-2.53087l-8.99878-11.77778c.01159.22993.02318.45655.03473.67821.04135.9429.06619,1.59463.07943,2.114.01321.55912.02149.96935.02149,1.18275v7.80277h-2.96429V26.62161h2.51105l8.98388,11.8886c-.02318-.51279-.04136-1.06859-.0546-1.68891q-.02235-1.02477-.03473-2.01479c-.00828-.61866-.01159-1.22081-.01159-1.78983V26.62161Z"/>
        <path class="cls-33" d="M322.37564,33.465a5.59915,5.59915,0,0,0-2.08925-2.253,5.89691,5.89691,0,0,0-3.10656-.82214,6.44264,6.44264,0,0,0-3.36624.8883,6.20494,6.20494,0,0,0-2.30262,2.43992,7.36861,7.36861,0,0,0-.81885,3.4986,7.00689,7.00689,0,0,0,.847,3.46222,6.085,6.085,0,0,0,2.36877,2.382,6.96766,6.96766,0,0,0,3.4523.8453,7.30722,7.30722,0,0,0,2.81377-.55417,6.99261,6.99261,0,0,0,2.20172-1.4044l.36061-.349-1.54337-2.17525-.48632.40858a5.42119,5.42119,0,0,1-1.64094,1.01734,4.62409,4.62409,0,0,1-1.50036.25308,3.8762,3.8762,0,0,1-2.79886-.976,3.55379,3.55379,0,0,1-1.062-2.05282h9.30976l.038-1.36305A6.64269,6.64269,0,0,0,322.37564,33.465Zm-8.524,1.985a3.04776,3.04776,0,0,1,.9743-1.51356,3.5268,3.5268,0,0,1,2.33076-.74273,2.97706,2.97706,0,0,1,1.56816.392,2.80111,2.80111,0,0,1,1.00907,1.02561,3.058,3.058,0,0,1,.33245.83866Z"/>
        <path class="cls-33" d="M336.19466,30.63961V43.67954h-2.85508l-.03473-1.07356a5.8169,5.8169,0,0,1-.8023.57234,5.06157,5.06157,0,0,1-2.61361.72786,4.52894,4.52894,0,0,1-3.5714-1.43418,5.86073,5.86073,0,0,1-1.23567-3.98493V30.63961h2.918V38.1463c0,2.67977,1.277,3.02385,2.38863,3.02385a2.97636,2.97636,0,0,0,1.48546-.36888,2.7791,2.7791,0,0,0,1.04545-.99747,2.58045,2.58045,0,0,0,.37882-1.38455V30.63961Z"/>
        <path class="cls-33" d="M347.13712,30.77856l-.77581,3.13633-.63191-.268a2.46291,2.46291,0,0,0-.95281-.20346,2.57979,2.57979,0,0,0-1.45072.39367,2.63864,2.63864,0,0,0-.94122,1.05374,3.27818,3.27818,0,0,0-.33581,1.48545v7.30321h-2.918V30.63961h2.8899l.00993,1.062a5.72219,5.72219,0,0,1,.5326-.45656,4.18481,4.18481,0,0,1,2.57723-.85522,4.2741,4.2741,0,0,1,.84034.07942c.24813.04961.44994.09757.622.14886Z"/>
        <path class="cls-33" d="M356.98282,30.63961l-.02484,1.11a5.47,5.47,0,0,0-3.71529-1.35975,5.83383,5.83383,0,0,0-3.14626.88333,6.31306,6.31306,0,0,0-2.22652,2.41016,7.25419,7.25419,0,0,0-.81882,3.4655,7.38419,7.38419,0,0,0,.79237,3.43575,6.30364,6.30364,0,0,0,2.17689,2.42338,5.63274,5.63274,0,0,0,3.10987.89823,5.75221,5.75221,0,0,0,2.875-.74438,6.3421,6.3421,0,0,0,.94122-.64845v1.16619H359.866V30.63961Zm-.41189,8.57529a3.45579,3.45579,0,0,1-1.25388,1.37463,3.579,3.579,0,0,1-3.6111.00166,3.36778,3.36778,0,0,1-1.2307-1.38126,4.549,4.549,0,0,1-.45987-2.08425,4.45174,4.45174,0,0,1,.45821-2.04955,3.378,3.378,0,0,1,1.23075-1.36965,3.57155,3.57155,0,0,1,3.61271.00163,3.45139,3.45139,0,0,1,1.25388,1.373,4.38193,4.38193,0,0,1,.46645,2.04459A4.4821,4.4821,0,0,1,356.57093,39.2149Z"/>
        <rect class="cls-33" x="362.82541" y="25.71347" width="2.89644" height="17.96607"/>
      </g>
      <g>
        <path class="cls-33" d="M422.381,38.62271a4.94768,4.94768,0,0,1-.8006,2.77407A5.2468,5.2468,0,0,1,419.377,43.261a7.47615,7.47615,0,0,1-3.18762.64515,7.24576,7.24576,0,0,1-6.29417-3.29514l-.25968-.38047,2.04786-2.27285.42182.60213a6.27719,6.27719,0,0,0,1.99165,1.95525,4.59768,4.59768,0,0,0,2.22818.54093,4.32516,4.32516,0,0,0,1.64921-.29611,2.59875,2.59875,0,0,0,1.07026-.76425,1.6005,1.6005,0,0,0,.349-1.03221,1.56221,1.56221,0,0,0-.79733-1.45236A10.01062,10.01062,0,0,0,415.7593,36.469a8.96233,8.96233,0,0,1-3.77486-1.70049,4.25178,4.25178,0,0,1-1.4193-3.40763,4.34391,4.34391,0,0,1,.80064-2.564,5.37433,5.37433,0,0,1,2.09584-1.73193A6.58543,6.58543,0,0,1,422.065,29.5313l.24481.39371-2.11405,2.11406-.392-.61206a5.24827,5.24827,0,0,0-1.52846-1.59629,3.46412,3.46412,0,0,0-1.95029-.53927,3.21353,3.21353,0,0,0-2.05614.612,1.70937,1.70937,0,0,0-.71793,1.4342,1.48493,1.48493,0,0,0,.62528,1.29851,7.23243,7.23243,0,0,0,2.61362.96606,10.51528,10.51528,0,0,1,3.97336,1.69389A3.96028,3.96028,0,0,1,422.381,38.62271Z"/>
        <path class="cls-33" d="M436.89481,33.70811a6.24728,6.24728,0,0,0-2.21663-2.41343,5.8903,5.8903,0,0,0-3.1694-.88334,5.54442,5.54442,0,0,0-2.83861.77414,5.98045,5.98045,0,0,0-.88165.622l-.01324-1.16785h-2.88986V48.67353H427.805V42.54479a6.18045,6.18045,0,0,0,.89825.60707,6.00255,6.00255,0,0,0,6.01128-.15217,6.16164,6.16164,0,0,0,2.19345-2.41512,7.79752,7.79752,0,0,0-.01321-6.87646ZM428.1574,35.096a3.38842,3.38842,0,0,1,3.1016-1.856,3.362,3.362,0,0,1,1.82457.48963,3.44466,3.44466,0,0,1,1.25384,1.37461,4.71023,4.71023,0,0,1,0,4.08751,3.51472,3.51472,0,0,1-1.25881,1.38784,3.295,3.295,0,0,1-1.8196.49957,3.36184,3.36184,0,0,1-1.82457-.48964,3.52575,3.52575,0,0,1-1.26713-1.3796,4.72325,4.72325,0,0,1-.0099-4.11393Z"/>
        <path class="cls-33" d="M448.86612,30.63961l-.02479,1.11a5.644,5.644,0,0,0-.86518-.622,5.565,5.565,0,0,0-2.85016-.73778,5.83921,5.83921,0,0,0-3.14787.88333,6.32159,6.32159,0,0,0-2.22491,2.41016,7.24532,7.24532,0,0,0-.81882,3.4655,7.36463,7.36463,0,0,0,.79236,3.43575,6.2922,6.2922,0,0,0,2.1769,2.42338,5.62878,5.62878,0,0,0,3.10987.89823,5.7567,5.7567,0,0,0,2.875-.74438,6.3421,6.3421,0,0,0,.94122-.64845v1.16619h2.91962V30.63961Zm-.41189,8.57529a3.45579,3.45579,0,0,1-1.25388,1.37463,3.582,3.582,0,0,1-3.61272.00166,3.39052,3.39052,0,0,1-1.2307-1.38126,4.57916,4.57916,0,0,1-.45821-2.08425,4.4561,4.4561,0,0,1,.45821-2.04955,3.3777,3.3777,0,0,1,1.2307-1.36965,3.57157,3.57157,0,0,1,3.61272.00163,3.44043,3.44043,0,0,1,1.25388,1.373,4.38146,4.38146,0,0,1,.46649,2.04459A4.48161,4.48161,0,0,1,448.45423,39.2149Z"/>
        <path class="cls-33" d="M463.992,38.90888l1.765,2.15706-.28786.36888a6.25925,6.25925,0,0,1-2.28606,1.80141,6.76512,6.76512,0,0,1-2.94114.67,6.21869,6.21869,0,0,1-3.30175-.89163,6.34319,6.34319,0,0,1-2.28443-2.42005,7.55393,7.55393,0,0,1,0-6.893,6.24106,6.24106,0,0,1,5.63084-3.31168,6.76552,6.76552,0,0,1,3.004.67159,5.80291,5.80291,0,0,1,2.2199,1.86923l.25475.36228-1.74182,2.13721-.45159-.57567a4.49831,4.49831,0,0,0-1.46728-1.20423,3.76384,3.76384,0,0,0-1.75014-.45656,3.45276,3.45276,0,0,0-1.86919.50286,3.54378,3.54378,0,0,0-1.29028,1.38952,4.33332,4.33332,0,0,0-.47642,2.06276,4.26612,4.26612,0,0,0,.48632,2.04788,3.61288,3.61288,0,0,0,1.30186,1.40277,3.37275,3.37275,0,0,0,1.82623.50286,4.0767,4.0767,0,0,0,3.20579-1.65253Z"/>
        <path class="cls-33" d="M478.261,33.465a5.56613,5.56613,0,0,0-2.08921-2.253,5.89691,5.89691,0,0,0-3.10656-.82214,6.44269,6.44269,0,0,0-3.36628.8883,6.2055,6.2055,0,0,0-2.30262,2.43992,7.36362,7.36362,0,0,0-.81715,3.4986,7.02867,7.02867,0,0,0,.84526,3.46222,6.107,6.107,0,0,0,2.36881,2.382,6.96952,6.96952,0,0,0,3.45391.8453,7.29871,7.29871,0,0,0,2.81212-.55417,6.98952,6.98952,0,0,0,2.20172-1.40274l.36065-.35069-1.54337-2.17525-.48632.40858a5.40171,5.40171,0,0,1-1.641,1.01734,4.62391,4.62391,0,0,1-1.50036.25308,3.87886,3.87886,0,0,1-2.79886-.976,3.55375,3.55375,0,0,1-1.062-2.05282h9.30976l.038-1.36305A6.62825,6.62825,0,0,0,478.261,33.465Zm-8.524,1.985a3.05058,3.05058,0,0,1,.976-1.51356,3.51911,3.51911,0,0,1,2.32911-.74273,2.97706,2.97706,0,0,1,1.56816.392,2.80038,2.80038,0,0,1,1.009,1.02561,3.13871,3.13871,0,0,1,.33415.83866Z"/>
      </g>
      <path class="cls-33" d="M400.23973,24.91449a16.18328,16.18328,0,0,0-22.8476-.29611A16.15106,16.15106,0,0,0,372.57185,35.407a16.11855,16.11855,0,0,0,16.0489,16.84954h.11744a16.12957,16.12957,0,0,0,11.50154-27.342Zm2.9676,12.13674a14.57509,14.57509,0,1,1-14.6329-15.46165h.07277a14.577,14.577,0,0,1,14.56013,15.46165Z"/>
      <g>
        <path class="cls-33" d="M387.00957,47.58012c0-.38047,0-.7626.00166-1.14305,0-.038-.00166-.26135-.00331-.53761-.00166-.45324-.00331-1.05206-.00331-1.191V44.7068q.00993-2.16369.005-4.32735V39.15206a.83189.83189,0,0,0-.6964-.95447l-.23161-.07445a9.76925,9.76925,0,0,1-1.53836-.58888,6.03242,6.03242,0,0,1-2.033-1.59629,5.36423,5.36423,0,0,1,1.91883-1.41434,7.96415,7.96415,0,0,1,1.83451-.531.7394.7394,0,0,0,.68481-.69643c.00662-.15051.01821-.301.02976-.44993.01822-.24647.03809-.50122.03643-.76092-.00993-.923-.00828-1.86261-.00662-2.77242,0-.3573.00165-.71294.00165-1.07025V24.42982a1.18632,1.18632,0,1,0-1.63766.05953v.38544c-.00162.34406-.00162.68978.00331,1.03386a.19352.19352,0,0,1-.00331.05624.18069.18069,0,0,1-.05622.03144,11.29028,11.29028,0,0,0-2.99906,1.82126,7.40405,7.40405,0,0,0-1.99988,2.75088,6.708,6.708,0,0,0-.402,2.72941A4.92676,4.92676,0,0,0,380.325,35.359a1.31955,1.31955,0,0,1,.00658,1.16453,7.29375,7.29375,0,0,0-.26795,4.17021,6.48153,6.48153,0,0,0,1.95852,3.52009,8.34016,8.34016,0,0,0,3.267,1.94863.2159.2159,0,0,1,.07778.03639.18855.18855,0,0,1,.00824.08436c-.00824.4152-.00662.837-.00493,1.24395,0,.10424,0,.20843.00162.31265a1.18752,1.18752,0,1,0,1.63766.05954Zm-4.109-18.01241a8.35916,8.35916,0,0,1,2.47134-1.7584q-.00243.77912-.00162,1.55988l.00162,2.83859c0,.08107,0,.16873-.00493.22165-.048.0149-.129.03641-.21008.05791a7.96551,7.96551,0,0,0-1.52851.54589,6.95778,6.95778,0,0,0-1.92876,1.34318A4.76272,4.76272,0,0,1,382.90057,29.56771Zm2.47134,12.60818-.00162.6749c0,.51778,0,1.03718.00327,1.55659a6.45777,6.45777,0,0,1-2.87-2.14878,5.34562,5.34562,0,0,1-.9892-3.65077,4.906,4.906,0,0,1,.18525-1.1,8.39664,8.39664,0,0,0,3.63423,2.17029c.01656.00662.02981.01159.03643.01488a.337.337,0,0,1,.00327.05292c-.00327.59553-.00327,1.19268-.00327,1.78819Z"/>
        <path class="cls-33" d="M396.81558,35.78412a6.48386,6.48386,0,0,0,.53264-3.88567,6.8557,6.8557,0,0,0-2.67645-4.33727,11.21809,11.21809,0,0,0-2.68644-1.55659.27911.27911,0,0,1-.05953-.03142.28752.28752,0,0,1-.00662-.07445c.00828-.39368.00662-.79236.005-1.17776l-.00166-.29776a1.18835,1.18835,0,1,0-1.6327.03473c.00331.93791,0,1.88246-.00492,2.80218-.00828,1.93706-.01822,3.94193.0529,5.9137a.80811.80811,0,0,0,.6981.82544c.09261.01987.18359.03806.27458.05626a7.68248,7.68248,0,0,1,.80722.19021,5.53265,5.53265,0,0,1,2.63842,1.66081.38035.38035,0,0,1,.04135.0546c-.00658.00828-.01486.01985-.02976.03639a6.9641,6.9641,0,0,1-1.98833,1.545,8.43,8.43,0,0,1-1.73524.63355c-.52933.13731-.66991.4516-.69475.69311-.00662.06617-.01324.13069-.02152.19686a5.55768,5.55768,0,0,0-.04629.6567c.00663,1.02062.00493,2.06111.00493,3.06521l-.00161,2.08591v.20842c.00161.39869.00492,1.22578.00331,1.37133-.005.36062-.005.7229-.00331,1.08515v.31263a1.18676,1.18676,0,1,0,1.63928.03144V47.5553c.00331-.38873.005-.7907-.00828-1.18937-.005-.15383.00165-.16376.14393-.21172a8.66514,8.66514,0,0,0,3.11153-1.82788,6.98228,6.98228,0,0,0,2.24967-5.05186,7.07067,7.07067,0,0,0-.61535-3.186A.30035.30035,0,0,1,396.81558,35.78412Zm-1.06367,3.8923a5.23768,5.23768,0,0,1-.51774,1.87915,5.98472,5.98472,0,0,1-2.8237,2.63678c-.14224.06947-.28783.13232-.44166.1985l-.04466.01985q-.00249-.794-.00166-1.588l.00166-1.31175c.00165-.574.00165-1.16952-.005-1.75511a.38787.38787,0,0,1,.00331-.05955.41582.41582,0,0,1,.04964-.01985,9.11768,9.11768,0,0,0,2.87-1.4656,7.57058,7.57058,0,0,0,.76094-.665,6.2012,6.2012,0,0,1,.18032,1.48711C395.78337,39.24468,395.77344,39.45971,395.75191,39.67642Zm.02981-6.20484a4.85954,4.85954,0,0,1-.16542.92139,7.55771,7.55771,0,0,0-3.669-1.95195.202.202,0,0,1-.02645-.00662V32.398c.005-.569.00331-1.13808.00331-1.70713l-.00166-1.17279c0-.55417,0-1.10666.00166-1.66081v-.048a8.66051,8.66051,0,0,1,2.33568,1.58472,4.89461,4.89461,0,0,1,1.54668,3.56641Q395.80651,33.21351,395.78172,33.47158Z"/>
      </g>
    </g>
  </g>
</svg>